<svg xmlns="http://www.w3.org/2000/svg" xmlns:lucid="lucid" width="4272" height="3001"><g lucid:page-tab-id="0_0"><path d="M901.88 2115c0 22.1-17.9 40-40 40s-40-17.9-40-40 17.9-40 40-40 40 17.9 40 40zM1159.88 2287.3c0 22.1-17.9 40-40 40s-40-17.9-40-40 17.9-40 40-40 40 17.9 40 40zM1179.88 2607.3c0 22.1-17.9 40-40 40s-40-17.9-40-40 17.9-40 40-40 40 17.9 40 40zM1419.88 2255c0 22.1-17.9 40-40 40s-40-17.9-40-40 17.9-40 40-40 40 17.9 40 40z" stroke="#000" stroke-opacity="0" stroke-width="8" fill="#54d500"/><path d="M898.42 2139.4l184.92 123.5" stroke="#54d500" stroke-width="8" fill="none"/><path d="M900.73 2136.13l-4.44 6.66-3.6-2.4 1.64-2.02 2.67-4.23.2-.38zM1089.07 2261.92l-1.65 2-2.67 4.23-.17.4-3.55-2.38 4.45-6.65z" stroke="#54d500" stroke-width=".05" fill="#54d500"/><path d="M1163.47 2281.9l172.82-21.48" stroke="#54d500" stroke-width="8" fill="none"/><path d="M1164.07 2285.84l-4.07.5-.2-1.68-.02-.23-.28-2.05-.5-3.97 4.08-.5zM1339.98 2257.87l.67 4.95.27 1.05-4.24.53-1-7.94 4.23-.53z" stroke="#54d500" stroke-width=".05" fill="#54d500"/><path d="M1122.63 2331.2l14.5 232.2" stroke="#54d500" stroke-width="8" fill="none"/><path d="M1126.62 2331.06l-7.98.5-.27-4.35 1.5.1 2.88-.1 3.6-.48zM1141.4 2567.4l-1.52-.1-2.87.1-3.6.5-.26-4.35 7.98-.5z" stroke="#54d500" stroke-width=".05" fill="#54d500"/><path d="M1399.88 2467.3c0 22.1-17.9 40-40 40s-40-17.9-40-40 17.9-40 40-40 40 17.9 40 40z" stroke="#000" stroke-opacity="0" stroke-width="8" fill="#54d500"/><path d="M1177 2583.68l145.76-92.75" stroke="#54d500" stroke-width="8" fill="none"/><path d="M1179.23 2587l-3.65 2.33-2.02-3.6-2.3-3.14 3.68-2.35zM1326.2 2488.9l2.3 3.12-3.68 2.34-4.3-6.75 3.67-2.32z" stroke="#54d500" stroke-width=".05" fill="#54d500"/><path d="M1364 2423.56l11.76-124.8" stroke="#54d500" stroke-width="8" fill="none"/><path d="M1368 2423.83l-.4 4.3-2.68-.5-5.04-.33h-.25l.4-4.22zM1374.4 2294.6l.44.1 1.3.07 3.98.37-.4 4.1-7.95-.76.38-4.1z" stroke="#54d500" stroke-width=".05" fill="#54d500"/><path d="M1676.26 2555c0 22.1-17.9 40-40 40s-40-17.9-40-40 17.9-40 40-40 40 17.9 40 40z" stroke="#000" stroke-opacity="0" stroke-width="8" fill="#54d500"/><path d="M1401.76 2480.6l192.62 61.1" stroke="#54d500" stroke-width="8" fill="none"/><path d="M1403.06 2476.8l-2.4 7.63-4.1-1.3.56-1.18 1.52-4.72.33-1.72zM1599.4 2539.1l-1.2 3.82-.7 2.15-.02.1-.5 1.56-3.9-1.24 2.4-7.63z" stroke="#54d500" stroke-width=".05" fill="#54d500"/><path d="M1319.88 2915c0 22.1-17.9 40-40 40s-40-17.9-40-40 17.9-40 40-40 40 17.9 40 40zM1522 2714.57c0 22.1-17.9 40-40 40s-40-17.9-40-40 17.9-40 40-40 40 17.9 40 40zM1702 3055c0 22.1-17.9 40-40 40s-40-17.9-40-40 17.9-40 40-40 40 17.9 40 40zM1862 2755c0 22.1-17.9 40-40 40s-40-17.9-40-40 17.9-40 40-40 40 17.9 40 40z" stroke="#000" stroke-opacity="0" stroke-width="8" fill="#54d500"/><path d="M1315.15 2889l128.53-153.5" stroke="#54d500" stroke-width="8" fill="none"/><path d="M1318.28 2891.5l-3.47 4.15-1.24-2.23-2.96-4.04-.52-.55 2.07-2.47zM1445.9 2731.8l2.42 4.35.02.03-1.66 1.97-6.13-5.14 3.93-4.7z" stroke="#54d500" stroke-width=".05" fill="#54d500"/><path d="M1525.68 2719.76l252.64 30.05" stroke="#54d500" stroke-width="8" fill="none"/><path d="M1526.25 2715.8l-.94 7.94-4.07-.48.4-3.4.06-.26v-.3l.48-3.98zM1783 2746.33l-.7 3.63-.25 4.32-4.3-.5.94-7.96z" stroke="#54d500" stroke-width=".05" fill="#54d500"/><path d="M1502.54 2753.4l138.92 262.76" stroke="#54d500" stroke-width="8" fill="none"/><path d="M1506.12 2751.63l-7.07 3.74-2-3.8 2.17-.9 4.36-2.42.54-.4zM1646.96 3018l-2.18.9-4.36 2.42-.54.4-2-3.78 7.07-3.74z" stroke="#54d500" stroke-width=".05" fill="#54d500"/><path d="M2102 2935c0 22.1-17.9 40-40 40s-40-17.9-40-40 17.9-40 40-40 40 17.9 40 40z" stroke="#000" stroke-opacity="0" stroke-width="8" fill="#54d500"/><path d="M1704.1 3042.37l315.8-94.74" stroke="#54d500" stroke-width="8" fill="none"/><path d="M1705.35 3046.17l-4.08 1.23-.04-.23-1.26-4.8-1.06-2.62 4.15-1.24zM2022.76 2942.82l1.27 4.8 1.06 2.63-4.15 1.24-2.3-7.67 4.08-1.23z" stroke="#54d500" stroke-width=".05" fill="#54d500"/><path d="M2026.83 2908.62l-169.66-127.24" stroke="#54d500" stroke-width="8" fill="none"/><path d="M2032.57 2907.93l-3.03 3.7-1.73 2.73-3.45-2.6 4.8-6.4zM1859.65 2778.24l-4.8 6.4-3.28-2.46 2.4-3.2.5-.6.2-.36 1.7-2.24z" stroke="#54d500" stroke-width=".05" fill="#54d500"/><path d="M2682 2935c0 22.1-17.9 40-40 40s-40-17.9-40-40 17.9-40 40-40 40 17.9 40 40z" stroke="#000" stroke-opacity="0" stroke-width="8" fill="#54d500"/><path d="M2106 2935h492" stroke="#54d500" stroke-width="8" fill="none"/><path d="M2106.1 2939h-4.35l.25-4-.1-2.87-.15-1.13h4.35zM2602 2939h-4.1v-8h4.1z" stroke="#54d500" stroke-width=".05" fill="#54d500"/><path d="M1836.26 2415c0 22.1-17.9 40-40 40s-40-17.9-40-40 17.9-40 40-40 40 17.9 40 40zM1956.26 2307.3c0 22.1-17.9 40-40 40s-40-17.9-40-40 17.9-40 40-40 40 17.9 40 40zM2022 2564.57c0 22.1-17.9 40-40 40s-40-17.9-40-40 17.9-40 40-40 40 17.9 40 40zM2322 2155c0 22.1-17.9 40-40 40s-40-17.9-40-40 17.9-40 40-40 40 17.9 40 40z" stroke="#000" stroke-opacity="0" stroke-width="8" fill="#54d500"/><path d="M1831.4 2388.9l46.67-60.56" stroke="#54d500" stroke-width="8" fill="none"/><path d="M1834.63 2391.27l-3.42 4.43-1.26-2.28-2.97-4.04-.54-.58 1.86-2.42zM1880.15 2324.53l2.42 4.36.06.07-1.46 1.9-6.34-4.9 3.88-5z" stroke="#54d500" stroke-width=".05" fill="#54d500"/><path d="M1956.82 2290.4l284.62-118.5" stroke="#54d500" stroke-width="8" fill="none"/><path d="M1958.45 2294.07l-3.8 1.58-1.52-3.7-.76-1.87-.1-.18-.68-1.64 3.77-1.58zM2244.03 2167.62l1.86 4.6.96 1.75-3.98 1.65-3.07-7.38 3.96-1.65z" stroke="#54d500" stroke-width=".05" fill="#54d500"/><path d="M1927.14 2349.87l43.98 172.13" stroke="#54d500" stroke-width="8" fill="none"/><path d="M1931.04 2348.98l-7.75 1.98-1.08-4.17 1.86-.26 4.8-1.27 1.1-.44zM1976.04 2525.08l-1.87.25-4.8 1.27-1.1.44-1.05-4.15 7.75-2z" stroke="#54d500" stroke-width=".05" fill="#54d500"/><path d="M2276.26 2415c0 22.1-17.9 40-40 40s-40-17.9-40-40 17.9-40 40-40 40 17.9 40 40z" stroke="#000" stroke-opacity="0" stroke-width="8" fill="#54d500"/><path d="M2019.87 2542.3l178.52-105.02" stroke="#54d500" stroke-width="8" fill="none"/><path d="M2022 2545.68l-3.68 2.17-.2-.5-2.44-4.37-1.47-2 3.73-2.2zM2200.15 2432.22l2.42 4.36 1.48 2-3.73 2.2-4.05-6.9 3.67-2.16z" stroke="#54d500" stroke-width=".05" fill="#54d500"/><path d="M2243.87 2371.73l30.52-173.46" stroke="#54d500" stroke-width="8" fill="none"/><path d="M2247.83 2372.32l-.74 4.2-.9-.28-4.9-.93-2.1-.12.75-4.24zM2275.08 2194.33l1.88.36h.23l1.82.32-.7 4.04-7.9-1.38.72-4.04z" stroke="#54d500" stroke-width=".05" fill="#54d500"/><path d="M2682 2355c0 22.1-17.9 40-40 40s-40-17.9-40-40 17.9-40 40-40 40 17.9 40 40z" stroke="#000" stroke-opacity="0" stroke-width="8" fill="#54d500"/><path d="M2279.72 2408.57l318.82-47.14" stroke="#54d500" stroke-width="8" fill="none"/><path d="M2280.4 2412.52l-4.2.62-.04-1-.67-4.96-.52-1.95 4.25-.63zM2602.5 2360.84l.26 1.98.07.24.25 1.74-4.05.6-1.17-7.92 4.05-.6z" stroke="#54d500" stroke-width=".05" fill="#54d500"/><path d="M1622 1995c0 22.1-17.9 40-40 40s-40-17.9-40-40 17.9-40 40-40 40 17.9 40 40zM1736.26 1867.3c0 22.1-17.9 40-40 40s-40-17.9-40-40 17.9-40 40-40 40 17.9 40 40zM1756.26 2187.3c0 22.1-17.9 40-40 40s-40-17.9-40-40 17.9-40 40-40 40 17.9 40 40zM1996.26 1835c0 22.1-17.9 40-40 40s-40-17.9-40-40 17.9-40 40-40 40 17.9 40 40z" stroke="#000" stroke-opacity="0" stroke-width="8" fill="#54d500"/><path d="M1616.56 1968.54l42.08-79.83" stroke="#54d500" stroke-width="8" fill="none"/><path d="M1620.15 1970.3l-3 5.73-1.47-2.6-2.96-4.05-.72-.76 1.07-2.04zM1658.64 1880.8l1.5 3.73 2.43 4.36.3.38-.74 1.4-7.07-3.74 3.3-6.28z" stroke="#54d500" stroke-width=".05" fill="#54d500"/><path d="M1739.85 1861.9l172.82-21.48" stroke="#54d500" stroke-width="8" fill="none"/><path d="M1740.45 1865.85l-4.07.5-.22-1.7v-.22l-.28-2.05-.5-3.97 4.08-.5zM1916.36 1837.87l.66 4.95.28 1.05-4.24.53-1-7.94 4.23-.53z" stroke="#54d500" stroke-width=".05" fill="#54d500"/><path d="M1699 1911.2l14.52 232.2" stroke="#54d500" stroke-width="8" fill="none"/><path d="M1703 1911.06l-7.98.5-.28-4.35 1.52.1 2.87-.1 3.6-.48zM1717.77 2147.4l-1.5-.1-2.88.1-3.6.5-.28-4.35 7.98-.5z" stroke="#54d500" stroke-width=".05" fill="#54d500"/><path d="M2027.73 2095c0 22.1-17.9 40-40 40s-40-17.9-40-40 17.9-40 40-40 40 17.9 40 40z" stroke="#000" stroke-opacity="0" stroke-width="8" fill="#54d500"/><path d="M1757.9 2173.14l188.17-63.98" stroke="#54d500" stroke-width="8" fill="none"/><path d="M1759.3 2176.9l-4.12 1.4-.95-3.62-1.6-3.97 4.1-1.38zM1949.76 2107.62l1.6 3.97-4.1 1.38-2.57-7.57 4.1-1.4z" stroke="#54d500" stroke-width=".05" fill="#54d500"/><path d="M1982.45 2051.4l-20.9-172.8" stroke="#54d500" stroke-width="8" fill="none"/><path d="M1986.92 2055.03l-2.06.07-4.96.67-.92.24-.5-4.23 7.93-.96zM1965.52 1878.23l-7.94.96-.5-4.08 1.76-.2.3-.02 1.92-.26 3.97-.48z" stroke="#54d500" stroke-width=".05" fill="#54d500"/><path d="M2242 1915c0 22.1-17.9 40-40 40s-40-17.9-40-40 17.9-40 40-40 40 17.9 40 40z" stroke="#000" stroke-opacity="0" stroke-width="8" fill="#54d500"/><path d="M2021.4 2066.7l146.92-123.4" stroke="#54d500" stroke-width="8" fill="none"/><path d="M2024.06 2069.7l-3.33 2.8-2.3-3.12-2.84-3 3.32-2.8zM2171.2 1940.52l.08.1.1.1 2.57 3.07-3.14 2.63-5.14-6.13 3.14-2.64z" stroke="#54d500" stroke-width=".05" fill="#54d500"/><path d="M1763.18 2443.94l-93.84 82.12" stroke="#54d500" stroke-width="8" fill="none"/><path d="M1765.28 2440.27l.26.35.65.7 2.63 3-3.1 2.7-5.26-6.02 3.1-2.7zM1672.05 2529l-3.26 2.85-1.83-2.47-3.4-3.6 3.2-2.8z" stroke="#54d500" stroke-width=".05" fill="#54d500"/><path d="M1406.85 2220.3l148.18-190.6" stroke="#54d500" stroke-width="8" fill="none"/><path d="M1410.07 2222.7l-2.62 3.35-.3-.32-3.9-3.2-2.15-1.35 2.65-3.4zM1554.74 2024.27l3.88 3.2 2.16 1.35-2.65 3.4-6.32-4.9 2.63-3.37z" stroke="#54d500" stroke-width=".05" fill="#54d500"/><path d="M1379.36 2506.74l83.17 168.4" stroke="#54d500" stroke-width="8" fill="none"/><path d="M1383 2505.06l-7.2 3.54-1.9-3.9 3.2-1.28 3.98-2.22zM1468 2677.16l-3.22 1.3-3.98 2.2-1.9-3.85 7.17-3.53z" stroke="#54d500" stroke-width=".05" fill="#54d500"/><path d="M2482 1991.45c0 22.1-17.9 40-40 40s-40-17.9-40-40 17.9-40 40-40 40 17.9 40 40zM2742 1758.35c0 22.1-17.9 40-40 40s-40-17.9-40-40 17.9-40 40-40 40 17.9 40 40zM2856.9 2270.65c0 22.1-17.9 40-40 40s-40-17.9-40-40 17.9-40 40-40 40 17.9 40 40zM3075.9 1918.35c0 22.1-17.9 40-40 40s-40-17.9-40-40 17.9-40 40-40 40 17.9 40 40z" stroke="#000" stroke-opacity="0" stroke-width="8" fill="#54d500"/><path d="M2474.7 1962.12l194.6-174.44" stroke="#54d500" stroke-width="8" fill="none"/><path d="M2477.46 1965.03l-3.2 2.88-1.54-2.08-3.46-3.65-.3-.25 3.16-2.85zM2671.28 1783.97l3.46 3.65.3.26-3.16 2.84-5.34-5.95 3.2-2.88z" stroke="#54d500" stroke-width=".05" fill="#54d500"/><path d="M2741.62 1777.33l254.66 122.03" stroke="#54d500" stroke-width="8" fill="none"/><path d="M2743.44 1773.77l-3.46 7.2-3.7-1.76.76-1.56.1-.14.87-1.9 1.74-3.6zM3001.8 1897.57l-1.03 1.63-2.1 4.5-.36 1.07-3.85-1.85 3.46-7.2z" stroke="#54d500" stroke-width=".05" fill="#54d500"/><path d="M2711.62 1801.24l95.66 426.52" stroke="#54d500" stroke-width="8" fill="none"/><path d="M2715.55 1800.47l-7.8 1.75-.96-4.23 3.02-.42 4.8-1.26zM2812.1 2231l-3.03.42-4.8 1.26-.92-4.15 7.8-1.75z" stroke="#54d500" stroke-width=".05" fill="#54d500"/><path d="M3002.9 2130.65c0 22.1-17.9 40-40 40s-40-17.9-40-40 17.9-40 40-40 40 17.9 40 40z" stroke="#000" stroke-opacity="0" stroke-width="8" fill="#54d500"/><path d="M2848.6 2240.25l82.6-79.2" stroke="#54d500" stroke-width="8" fill="none"/><path d="M2851.44 2243.07l-3.1 2.96-.73-1-3.45-3.65-1.35-1.1 3.1-3zM2932.18 2156.28l3.46 3.64 1.35 1.1-3.1 3-5.55-5.8 3.1-2.95z" stroke="#54d500" stroke-width=".05" fill="#54d500"/><path d="M2977.18 2089.1l44.43-129.2" stroke="#54d500" stroke-width="8" fill="none"/><path d="M2981 2090.3l-1.4 4.08-2.06-.96-4.72-1.53-.78-.16 1.4-4.04zM3020.97 1955.45l.28.13 1.66.54 3.8 1.3-1.34 3.88-7.57-2.6 1.33-3.88z" stroke="#54d500" stroke-width=".05" fill="#54d500"/><path d="M3294.9 2218.35c0 22.1-17.9 40-40 40s-40-17.9-40-40 17.9-40 40-40 40 17.9 40 40z" stroke="#000" stroke-opacity="0" stroke-width="8" fill="#54d500"/><path d="M3004.98 2143.3l207.83 62.4" stroke="#54d500" stroke-width="8" fill="none"/><path d="M3006.23 2139.5l-2.3 7.65-4.1-1.23.3-.62 1.52-4.72.45-2.33zM3217.8 2203.03l-1.16 3.83-.5 1.56-.06.32-.6 1.95-3.92-1.2 2.3-7.65z" stroke="#54d500" stroke-width=".05" fill="#54d500"/><path d="M2929.9 2578.35c0 22.1-17.9 40-40 40s-40-17.9-40-40 17.9-40 40-40 40 17.9 40 40zM3148.9 2377.9c0 22.1-17.9 40-40 40s-40-17.9-40-40c0-22.08 17.9-40 40-40s40 17.92 40 40zM3367.9 2718.35c0 22.1-17.9 40-40 40s-40-17.9-40-40 17.9-40 40-40 40 17.9 40 40zM3659.9 2418.35c0 22.1-17.9 40-40 40s-40-17.9-40-40 17.9-40 40-40 40 17.9 40 40z" stroke="#000" stroke-opacity="0" stroke-width="8" fill="#54d500"/><path d="M2925.34 2552.5l145.06-153.8" stroke="#54d500" stroke-width="8" fill="none"/><path d="M2928.32 2555.18l-3.53 3.75-1.22-2.17-2.97-4.04-.47-.5 2.37-2.53zM3072.78 2395.14l2.4 4.3-1.94 2.07-5.82-5.48 4-4.25z" stroke="#54d500" stroke-width=".05" fill="#54d500"/><path d="M3152.7 2381.38l423.4 33.5" stroke="#54d500" stroke-width="8" fill="none"/><path d="M3153.1 2377.4l-.63 7.97-4.1-.32.16-1.8.05-.3.12-1.9.3-3.98zM3580.6 2411.22l-.4 2.1-.3 5.03.03.85-4.24-.34.62-7.97z" stroke="#54d500" stroke-width=".05" fill="#54d500"/><path d="M3132.7 2414.92l171.4 266.42" stroke="#54d500" stroke-width="8" fill="none"/><path d="M3136.12 2412.84l-6.73 4.33-2.36-3.66 3.44-1.9 3.3-2.42zM3309.75 2682.75l-3.44 1.9-3.28 2.43-2.35-3.66 6.73-4.33z" stroke="#54d500" stroke-width=".05" fill="#54d500"/><path d="M4024.9 2598.35c0 22.1-17.9 40-40 40s-40-17.9-40-40 17.9-40 40-40 40 17.9 40 40z" stroke="#000" stroke-opacity="0" stroke-width="8" fill="#54d500"/><path d="M3371.15 2710.45l570.5-104.2" stroke="#54d500" stroke-width="8" fill="none"/><path d="M3371.97 2714.36l-4.22.77-.62-4.6-.86-3.26 4.26-.78zM3945.66 2606.17l.86 3.25-4.26.78-1.44-7.87 4.22-.77z" stroke="#54d500" stroke-width=".05" fill="#54d500"/><path d="M3945.5 2578.9l-286.2-141.12" stroke="#54d500" stroke-width="8" fill="none"/><path d="M3951.03 2577.2l-1.26 2-2.1 4.5-.22.64-3.83-1.9 3.54-7.16zM3661.16 2434.24l-3.53 7.17-3.68-1.8.9-1.83.17-.27.7-1.5 1.77-3.58z" stroke="#54d500" stroke-width=".05" fill="#54d500"/><path d="M4316.9 2318.35c0 22.1-17.9 40-40 40s-40-17.9-40-40 17.9-40 40-40 40 17.9 40 40z" stroke="#000" stroke-opacity="0" stroke-width="8" fill="#54d500"/><path d="M4016.6 2567.95l228.6-219.2" stroke="#54d500" stroke-width="8" fill="none"/><path d="M4019.44 2570.76l-3.1 2.97-.73-1-3.45-3.66-1.35-1.1 3.1-2.98zM4248.08 2345.98l1.55 1.64.1.07 1.12 1.17-2.96 2.83-5.55-5.77 2.96-2.84z" stroke="#54d500" stroke-width=".05" fill="#54d500"/><path d="M3586.9 2078.35c0 22.1-17.9 40-40 40s-40-17.9-40-40 17.9-40 40-40 40 17.9 40 40zM3732.9 1970.65c0 22.1-17.9 40-40 40s-40-17.9-40-40 17.9-40 40-40 40 17.9 40 40zM3878.9 2227.9c0 22.1-17.9 40-40 40s-40-17.9-40-40c0-22.08 17.9-40 40-40s40 17.92 40 40zM4243.9 1818.35c0 22.1-17.9 40-40 40s-40-17.9-40-40 17.9-40 40-40 40 17.9 40 40z" stroke="#000" stroke-opacity="0" stroke-width="8" fill="#54d500"/><path d="M3582.62 2052.8l71.5-61.67" stroke="#54d500" stroke-width="8" fill="none"/><path d="M3585.3 2055.77l-3.56 3.08-1.16-2.1-2.97-4.03-.44-.48 2.93-2.53zM3656.78 1987.88l2.35 4.2-2.48 2.15-5.23-6.06 4.07-3.5z" stroke="#54d500" stroke-width=".05" fill="#54d500"/><path d="M3735.02 1958.1l426.75-127.2" stroke="#54d500" stroke-width="8" fill="none"/><path d="M3736.26 1961.9l-3.94 1.17-1.14-3.83-.32-1.2-.15-.4-.66-2.23 3.93-1.17zM4164.66 1826.17l1.27 4.8 1.03 2.56-4.14 1.23-2.3-7.66 4.1-1.22z" stroke="#54d500" stroke-width=".05" fill="#54d500"/><path d="M3714.58 2008.86l102.63 180.85" stroke="#54d500" stroke-width="8" fill="none"/><path d="M3718.1 2006.97l-6.95 3.95-2.1-3.72 1.07-.44 4.36-2.42 1.5-1.1zM3822.75 2191.36l-1.08.44-4.36 2.43-1.5 1.1-2.12-3.74 6.96-3.96z" stroke="#54d500" stroke-width=".05" fill="#54d500"/><path d="M4170.9 2078.35c0 22.1-17.9 40-40 40s-40-17.9-40-40 17.9-40 40-40 40 17.9 40 40z" stroke="#000" stroke-opacity="0" stroke-width="8" fill="#54d500"/><path d="M3878 2207.88l213.77-109.5" stroke="#54d500" stroke-width="8" fill="none"/><path d="M3879.93 2211.4l-3.85 1.96-1.07-2.67-2.42-4.37-.1-.12 3.8-1.93zM4094.78 2095.57l2.43 4.36.1.12-3.8 1.94-3.64-7.13 3.85-1.97z" stroke="#54d500" stroke-width=".05" fill="#54d500"/><path d="M4142.78 2036.02l49.23-175.35" stroke="#54d500" stroke-width="8" fill="none"/><path d="M4146.66 2037l-1.15 4.1-4.68-1.5-3.04-.6 1.17-4.16zM4193.1 1856.82l.87.3.4.06 2.57.72-1.1 3.95-7.7-2.16 1.1-3.96z" stroke="#54d500" stroke-width=".05" fill="#54d500"/><path d="M4173.27 2066.74l134.25-36.78" stroke="#54d500" stroke-width="8" fill="none"/><path d="M4174.42 2070.57l-4.13 1.13-.17-1.18-1.27-4.8-.7-1.73 4.15-1.15zM4311.38 2028.9l.55 2.07.06.15.44 1.64-3.96 1.08-2.1-7.72 3.94-1.08z" stroke="#54d500" stroke-width=".05" fill="#54d500"/><path d="M3221.9 1658.35c0 22.1-17.9 40-40 40s-40-17.9-40-40 17.9-40 40-40 40 17.9 40 40zM3440.9 1530.65c0 22.1-17.9 40-40 40s-40-17.9-40-40 17.9-40 40-40 40 17.9 40 40zM3513.9 1850.65c0 22.1-17.9 40-40 40s-40-17.9-40-40 17.9-40 40-40 40 17.9 40 40zM3805.9 1498.35c0 22.1-17.9 40-40 40s-40-17.9-40-40 17.9-40 40-40 40 17.9 40 40z" stroke="#000" stroke-opacity="0" stroke-width="8" fill="#54d500"/><path d="M3218.06 1633.42l143.62-82.9" stroke="#54d500" stroke-width="8" fill="none"/><path d="M3220.15 1636.84l-3.43 1.97-1.14-2.04-2.97-4.04-.46-.5 4-2.3zM3364.78 1547.88l2.3 4.14-3.5 2.02-4-6.93 3.97-2.28z" stroke="#54d500" stroke-width=".05" fill="#54d500"/><path d="M3444.7 1526.78l277.4-24.56" stroke="#54d500" stroke-width="8" fill="none"/><path d="M3445.14 1530.75l-4.08.36-.25-2.76v-.56l-.1-.65-.35-4 4.1-.35zM3725.9 1498.35l.1 2.87.62 4.62-4.27.38-.7-7.97 4.28-.38z" stroke="#54d500" stroke-width=".05" fill="#54d500"/><path d="M3410.67 1573.5l53.45 234.3" stroke="#54d500" stroke-width="8" fill="none"/><path d="M3414.6 1572.72l-7.8 1.77-.97-4.23 2.9-.38 4.8-1.28.12-.05zM3468.96 1811.03l-2.9.4-4.8 1.25-.12.06-.94-4.15 7.8-1.8z" stroke="#54d500" stroke-width=".05" fill="#54d500"/><path d="M3951.9 1758.35c0 22.1-17.9 40-40 40s-40-17.9-40-40 17.9-40 40-40 40 17.9 40 40z" stroke="#000" stroke-opacity="0" stroke-width="8" fill="#54d500"/><path d="M3516.93 1841.58l351.93-74.16" stroke="#54d500" stroke-width="8" fill="none"/><path d="M3517.86 1845.47l-4.26.9-.47-3.54-1.13-4.3 4.2-.88zM3872.66 1766.17l1.13 4.3-4.22.88-1.65-7.83 4.26-.9z" stroke="#54d500" stroke-width=".05" fill="#54d500"/><path d="M3890.4 1720.04l-103-183.4" stroke="#54d500" stroke-width="8" fill="none"/><path d="M3895.92 1721.73l-1.25.5-4.36 2.43-1.35 1-2.1-3.75 6.97-3.9zM3790.94 1534.78l-6.97 3.92-2-3.58 3.48-1.96 2.03-1.13.05-.04 1.4-.8z" stroke="#54d500" stroke-width=".05" fill="#54d500"/><path d="M4097.9 1578.35c0 22.1-17.9 40-40 40s-40-17.9-40-40 17.9-40 40-40 40 17.9 40 40z" stroke="#000" stroke-opacity="0" stroke-width="8" fill="#54d500"/><path d="M3939.56 1724.23l90.67-111.77" stroke="#54d500" stroke-width="8" fill="none"/><path d="M3942.73 1726.67l-2.7 3.33-.88-.93-3.88-3.18-1.45-.93 2.7-3.33zM4032.74 1609.35l1.78 1.46.1.07 1.23 1-2.58 3.2-6.22-5.05 2.6-3.2z" stroke="#54d500" stroke-width=".05" fill="#54d500"/><path d="M3507.22 2097.37l-212.65 101.95" stroke="#54d500" stroke-width="8" fill="none"/><path d="M3510.76 2095.5l.02.07.04.07 1.73 3.6-3.7 1.78-3.46-7.2 3.7-1.78zM3296.4 2202.9l-3.92 1.87-1.47-3.65-1.98-3.57 3.92-1.88z" stroke="#54d500" stroke-width=".05" fill="#54d500"/><path d="M3057.43 1880l102.93-183.3" stroke="#54d500" stroke-width="8" fill="none"/><path d="M3060.97 1881.87l-2.1 3.75-3.82-2.4-3.18-1.5 2.12-3.77zM3162.74 1693.47l3.18 1.5-2.12 3.77-6.98-3.92 2.1-3.75z" stroke="#54d500" stroke-width=".05" fill="#54d500"/><path d="M2985.24 2168.5l101.3 171.58" stroke="#54d500" stroke-width="8" fill="none"/><path d="M2988.73 2166.54l-6.88 4.07-2.17-3.66.44-.18 4.36-2.43 2.06-1.5zM3092.1 2341.62l-.43.18-4.36 2.43-2.05 1.5-2.2-3.7 6.9-4.08z" stroke="#54d500" stroke-width=".05" fill="#54d500"/><path d="M2620.83 2316.5l-157.66-286.56" stroke="#54d500" stroke-width="8" fill="none"/><path d="M2626.35 2318.25l-1.58.64-4.35 2.42-1.08.8-2.07-3.77 7-3.86zM2466.73 2028.1l-7 3.85-2.08-3.76 1.58-.64 4.35-2.43 1.08-.8z" stroke="#54d500" stroke-width=".05" fill="#54d500"/><path d="M484 924.74c0 22.1-17.9 40-40 40s-40-17.9-40-40 17.9-40 40-40 40 17.9 40 40zM641.88 816.74c0 22.1-17.9 40-40 40s-40-17.9-40-40 17.9-40 40-40 40 17.9 40 40zM661.88 1302.74c0 22.1-17.9 40-40 40s-40-17.9-40-40 17.9-40 40-40 40 17.9 40 40zM901.88 762.74c0 22.1-17.9 40-40 40s-40-17.9-40-40 17.9-40 40-40 40 17.9 40 40z" stroke="#000" stroke-opacity="0" stroke-width="8" fill="#54d500"/><path d="M479.9 899.4l83.03-62.4" stroke="#54d500" stroke-width="8" fill="none"/><path d="M482.38 902.55l-3.55 2.67-1.15-2.06-2.96-4.04-.45-.48 3.3-2.5zM565.77 833.96l2.32 4.18-2.85 2.13-4.8-6.4 4.05-3.04z" stroke="#54d500" stroke-width=".05" fill="#54d500"/><path d="M644.95 807.8l173.86-36.12" stroke="#54d500" stroke-width="8" fill="none"/><path d="M645.86 811.7l-4 .82-.7-3.37-.04-.24-.1-.3-.8-3.9 4.02-.84zM822.65 770.57l1.1 4.17-4.23.88-1.62-7.83 4.26-.9z" stroke="#54d500" stroke-width=".05" fill="#54d500"/><path d="M603.7 860.68l16.37 398.12" stroke="#54d500" stroke-width="8" fill="none"/><path d="M607.7 860.62l-8 .32-.18-4.35 2.36.14 2.87-.1 2.76-.37zM624.24 1262.9l-2.36-.16-2.87.1-2.75.37-.18-4.34 8-.33z" stroke="#54d500" stroke-width=".05" fill="#54d500"/><path d="M881.88 1140.74c0 22.1-17.9 40-40 40s-40-17.9-40-40 17.9-40 40-40 40 17.9 40 40z" stroke="#000" stroke-opacity="0" stroke-width="8" fill="#54d500"/><path d="M657.25 1276.7l149.26-109.9" stroke="#54d500" stroke-width="8" fill="none"/><path d="M659.7 1279.86l-3.45 2.54-.7-1.24-2.95-4.04-1.1-1.16 3.46-2.55zM808.2 1162.32l2.96 4.04 1.1 1.16-3.46 2.55-4.74-6.44 3.45-2.55z" stroke="#54d500" stroke-width=".05" fill="#54d500"/><path d="M844.2 1096.88l15.36-290.28" stroke="#54d500" stroke-width="8" fill="none"/><path d="M848.2 1097l-.23 4.26-1.05-.2-5.04-.32-1.9.07.23-4.24zM859.77 802.6l2.1.14h.24l1.67.08-.22 4.1-8-.43.23-4.1z" stroke="#54d500" stroke-width=".05" fill="#54d500"/><path d="M1158.26 1194.74c0 22.1-17.9 40-40 40s-40-17.9-40-40 17.9-40 40-40 40 17.9 40 40z" stroke="#000" stroke-opacity="0" stroke-width="8" fill="#54d500"/><path d="M885 1149.16l190.14 37.16" stroke="#54d500" stroke-width="8" fill="none"/><path d="M885.86 1145.26l-1.53 7.85-4.2-.8.5-1.63.94-4.9.08-1.34zM1079.84 1183.16l-.3 1.55-.04.1-.43 2.28-.77 3.93-4.02-.78 1.53-7.85z" stroke="#54d500" stroke-width=".05" fill="#54d500"/><path d="M782 1675c0 22.1-17.9 40-40 40s-40-17.9-40-40 17.9-40 40-40 40 17.9 40 40zM1004 1410.74c0 22.1-17.9 40-40 40s-40-17.9-40-40 17.9-40 40-40 40 17.9 40 40zM1078.26 1875c0 22.1-17.9 40-40 40s-40-17.9-40-40 17.9-40 40-40 40 17.9 40 40zM1382 1375c0 22.1-17.9 40-40 40s-40-17.9-40-40 17.9-40 40-40 40 17.9 40 40z" stroke="#000" stroke-opacity="0" stroke-width="8" fill="#54d500"/><path d="M770.25 1641.37l165.5-197" stroke="#54d500" stroke-width="8" fill="none"/><path d="M773.38 1643.86l-2.77 3.3-1.34-1.43-3.88-3.2-.87-.54 2.76-3.28zM936.74 1440l3.88 3.2.87.55-2.76 3.27-6.12-5.14 2.77-3.3z" stroke="#54d500" stroke-width=".05" fill="#54d500"/><path d="M1007.76 1406.6l290.48-27.46" stroke="#54d500" stroke-width="8" fill="none"/><path d="M1008.24 1410.58l-4.08.38-.24-2.5-.02-.6-.12-.88-.38-3.98 4.1-.4zM1302 1375l.1 2.87.65 4.86-4.24.4-.74-7.97 4.26-.4z" stroke="#54d500" stroke-width=".05" fill="#54d500"/><path d="M970.94 1454.13l60.38 377.48" stroke="#54d500" stroke-width="8" fill="none"/><path d="M974.9 1453.6l-7.9 1.26-.67-4.2.54-.02 4.96-.67 2.4-.63zM1035.92 1835.08l-.53.02-4.97.66-2.4.64-.68-4.26 7.9-1.26z" stroke="#54d500" stroke-width=".05" fill="#54d500"/><path d="M1902 1578.35c0 22.1-17.9 40-40 40s-40-17.9-40-40 17.9-40 40-40 40 17.9 40 40z" stroke="#000" stroke-opacity="0" stroke-width="8" fill="#54d500"/><path d="M1079.62 1860.1l741.02-266.86" stroke="#54d500" stroke-width="8" fill="none"/><path d="M1081.07 1863.83l-4.07 1.47-.77-2.92-1.86-4.6v-.03l4-1.44zM1824.03 1590.97l1.86 4.6v.03l-4 1.44-2.7-7.53 4.06-1.45z" stroke="#54d500" stroke-width=".05" fill="#54d500"/><path d="M1821.02 1562.32l-438.04-171.3" stroke="#54d500" stroke-width="8" fill="none"/><path d="M1826.43 1560.14l-1.66 3.56-1.26 3.9-4.04-1.6 2.92-7.44zM1384.54 1387.34l-2.92 7.45-3.82-1.5 1.4-3.6.03-.06.03-.07 1.45-3.73z" stroke="#54d500" stroke-width=".05" fill="#54d500"/><path d="M2302 1578.35c0 22.1-17.9 40-40 40s-40-17.9-40-40 17.9-40 40-40 40 17.9 40 40z" stroke="#000" stroke-opacity="0" stroke-width="8" fill="#54d500"/><path d="M1906 1578.35h312" stroke="#54d500" stroke-width="8" fill="none"/><path d="M1906.1 1582.35h-4.35l.25-4-.1-2.87-.15-1.13h4.35zM2222 1582.35h-4.1v-8h4.1z" stroke="#54d500" stroke-width=".05" fill="#54d500"/><path d="M1318.26 978.74c0 22.1-17.9 40-40 40s-40-17.9-40-40 17.9-40 40-40 40 17.9 40 40zM1438.26 870.74c0 22.1-17.9 40-40 40s-40-17.9-40-40 17.9-40 40-40 40 17.9 40 40zM1504 1248.74c0 22.1-17.9 40-40 40s-40-17.9-40-40 17.9-40 40-40 40 17.9 40 40zM1804 654.74c0 22.1-17.9 40-40 40s-40-17.9-40-40 17.9-40 40-40 40 17.9 40 40z" stroke="#000" stroke-opacity="0" stroke-width="8" fill="#54d500"/><path d="M1313.4 952.64l46.67-60.85" stroke="#54d500" stroke-width="8" fill="none"/><path d="M1316.63 955l-3.4 4.44-1.3-2.28-2.96-4.04-.54-.58 1.85-2.4zM1362.15 887.96l2.42 4.36.07.1-1.46 1.88-6.34-4.87 3.87-5.04z" stroke="#54d500" stroke-width=".05" fill="#54d500"/><path d="M1436.1 848.4l290.06-171.3" stroke="#54d500" stroke-width="8" fill="none"/><path d="M1438.22 851.8l-3.54 2.07-2.03-3.44-.7-1.27-.23-.3-1.1-1.88 3.53-2.08zM1727.9 671.96l2.42 4.36 1.5 2.06-3.7 2.2-4.08-6.9 3.67-2.15z" stroke="#54d500" stroke-width=".05" fill="#54d500"/><path d="M1405.8 914.05l50.67 291.38" stroke="#54d500" stroke-width="8" fill="none"/><path d="M1409.75 913.46l-7.88 1.37-.73-4.2 4.94-.66 2.93-.77zM1461.12 1208.84l-4.94.66-2.93.78-.74-4.26 7.9-1.37z" stroke="#54d500" stroke-width=".05" fill="#54d500"/><path d="M1758.26 1086.74c0 22.1-17.9 40-40 40s-40-17.9-40-40 17.9-40 40-40 40 17.9 40 40z" stroke="#000" stroke-opacity="0" stroke-width="8" fill="#54d500"/><path d="M1501.1 1225.1l180.05-114.72" stroke="#54d500" stroke-width="8" fill="none"/><path d="M1503.34 1228.42l-3.66 2.33-2-3.6-2.3-3.14 3.66-2.33zM1684.58 1108.32l2.3 3.15-3.67 2.34-4.28-6.74 3.65-2.33z" stroke="#54d500" stroke-width=".05" fill="#54d500"/><path d="M1722.9 1043.03l36.47-344.58" stroke="#54d500" stroke-width="8" fill="none"/><path d="M1726.88 1043.34l-.46 4.3-3.12-.6-4.83-.3.45-4.24zM1758.53 694.34l.43.1.83.04 3.97.42-.43 4.08-7.96-.84.43-4.08z" stroke="#54d500" stroke-width=".05" fill="#54d500"/><path d="M2164 1032.74c0 22.1-17.9 40-40 40s-40-17.9-40-40 17.9-40 40-40 40 17.9 40 40z" stroke="#000" stroke-opacity="0" stroke-width="8" fill="#54d500"/><path d="M1761.8 1080.94l318.66-42.4" stroke="#54d500" stroke-width="8" fill="none"/><path d="M1762.43 1084.9l-4.22.56-.04-1.6-.67-4.94-.37-1.4 4.24-.55zM2084.1 1035.6l.32 2.4.53 3.97-4.07.54-1.05-7.92 4.06-.54z" stroke="#54d500" stroke-width=".05" fill="#54d500"/><path d="M1104 492.74c0 22.1-17.9 40-40 40s-40-17.9-40-40 17.9-40 40-40 40 17.9 40 40zM1218.26 330.74c0 22.1-17.9 40-40 40s-40-17.9-40-40 17.9-40 40-40 40 17.9 40 40zM1238.26 708.74c0 22.1-17.9 40-40 40s-40-17.9-40-40 17.9-40 40-40 40 17.9 40 40zM1518.26 75c0 22.1-17.9 40-40 40s-40-17.9-40-40 17.9-40 40-40 40 17.9 40 40z" stroke="#000" stroke-opacity="0" stroke-width="8" fill="#54d500"/><path d="M1089.35 456.8l63.56-90.12" stroke="#54d500" stroke-width="8" fill="none"/><path d="M1092.68 459.02l-2.5 3.55-2.8-2.3-3.73-2.34 2.5-3.52zM1154.88 363.2l3.72 2.35-2.48 3.52-6.54-4.6 2.5-3.56z" stroke="#54d500" stroke-width=".05" fill="#54d500"/><path d="M1211.72 302.2l233.07-198.67" stroke="#54d500" stroke-width="8" fill="none"/><path d="M1214.4 305.2l-3.12 2.65-2.12-2.5-.2-.23-.28-.3-2.6-3.06 3.13-2.66zM1447.54 100.62l3.05 3.22-3.3 2.8-5.18-6.1 3.3-2.8z" stroke="#54d500" stroke-width=".05" fill="#54d500"/><path d="M1180.58 374.66l15.36 290.16" stroke="#54d500" stroke-width="8" fill="none"/><path d="M1184.58 374.55l-8 .42-.22-4.35 1.9.12 2.87-.1 3.22-.43zM1200.15 668.86l-1.9-.12-2.86.1-3.24.43-.23-4.34 8-.42z" stroke="#54d500" stroke-width=".05" fill="#54d500"/><path d="M1509.73 600.74c0 22.1-17.9 40-40 40s-40-17.9-40-40 17.9-40 40-40 40 17.9 40 40z" stroke="#000" stroke-opacity="0" stroke-width="8" fill="#54d500"/><path d="M1239.08 692.5l189.83-75.52" stroke="#54d500" stroke-width="8" fill="none"/><path d="M1240.65 696.18l-4 1.6-.42-1.66-1.86-4.6-.66-1.2 4-1.58zM1431.76 613.36l1.86 4.6.66 1.2-4 1.57-2.95-7.43 4-1.6z" stroke="#54d500" stroke-width=".05" fill="#54d500"/><path d="M1470.44 556.78l7.1-437.82" stroke="#54d500" stroke-width="8" fill="none"/><path d="M1474.44 556.74l-.07 4.3-4.64-.3-2.87.1-.5.07.08-4.3zM1477.6 114.96l.66.04.58-.02 2.77.04-.06 4.1-8-.12.07-4.1z" stroke="#54d500" stroke-width=".05" fill="#54d500"/><path d="M1782 295c0 22.1-17.9 40-40 40s-40-17.9-40-40 17.9-40 40-40 40 17.9 40 40z" stroke="#000" stroke-opacity="0" stroke-width="8" fill="#54d500"/><path d="M1498.96 567.9l213.8-240.07" stroke="#54d500" stroke-width="8" fill="none"/><path d="M1502 570.5l-2.87 3.23-2.14-2.26-3.8-3.1 2.84-3.2zM1714.45 323.97l.3.3.68.57 2.98 2.66-2.7 3.06-6-5.32 2.74-3.06z" stroke="#54d500" stroke-width=".05" fill="#54d500"/><path d="M1252.1 1014.07L1144.4 1159.4" stroke="#54d500" stroke-width="8" fill="none"/><path d="M1254.47 1010.86l.4.34.3.2 2.5 1.84-2.43 3.3-6.43-4.76 2.45-3.3zM1147.7 1161.7l-2.55 3.46-3.5-2.88-2.95-1.85 2.58-3.5z" stroke="#54d500" stroke-width=".05" fill="#54d500"/><path d="M888.23 727.55l149.42-199.62" stroke="#54d500" stroke-width="8" fill="none"/><path d="M891.5 729.86l-2.58 3.43-3.66-3.02-2.77-1.75 2.6-3.46zM1040.62 525.2l2.77 1.75-2.6 3.46-6.4-4.78 2.56-3.43z" stroke="#54d500" stroke-width=".05" fill="#54d500"/><path d="M860 1180.8l85.88 189.88" stroke="#54d500" stroke-width="8" fill="none"/><path d="M863.7 1179.24l-7.3 3.3-1.76-3.9 4.47-1.8 2.8-1.55zM951.24 1372.83l-4.46 1.8-2.8 1.55-1.8-3.95 7.3-3.3z" stroke="#54d500" stroke-width=".05" fill="#54d500"/><path d="M1982 484.1c0 22.1-17.9 40-40 40s-40-17.9-40-40 17.9-40 40-40 40 17.9 40 40zM2182 255.6c0 22.08-17.9 40-40 40s-40-17.92-40-40c0-22.1 17.9-40 40-40s40 17.9 40 40zM2338.9 1030.74c0 22.1-17.9 40-40 40s-40-17.9-40-40 17.9-40 40-40 40 17.9 40 40zM2522 375c0 22.1-17.9 40-40 40s-40-17.9-40-40 17.9-40 40-40 40 17.9 40 40z" stroke="#000" stroke-opacity="0" stroke-width="8" fill="#54d500"/><path d="M1970.94 451.03l142.12-162.37" stroke="#54d500" stroke-width="8" fill="none"/><path d="M1974.02 453.6l-2.85 3.25-1.9-2.02-3.9-3.2-.17-.1 2.8-3.2zM2114.74 284.87l3.88 3.18.18.12-2.8 3.2-6.02-5.27 2.85-3.25z" stroke="#54d500" stroke-width=".05" fill="#54d500"/><path d="M2183.46 270.15l257.08 90.3" stroke="#54d500" stroke-width="8" fill="none"/><path d="M2184.9 266.4l-2.66 7.56-3.88-1.36.7-2.02.17-.34.46-1.4 1.32-3.78zM2445.84 358.06l-1.07 2.3-1.53 4.7-.1.53-4.02-1.42 2.65-7.55z" stroke="#54d500" stroke-width=".05" fill="#54d500"/><path d="M2150.73 298.72l139.44 688.9" stroke="#54d500" stroke-width="8" fill="none"/><path d="M2154.67 298.03l-7.84 1.58-.86-4.25 3.86-.52 3.98-1.05zM2294.93 991l-3.86.5-4 1.06-.85-4.25 7.85-1.58z" stroke="#54d500" stroke-width=".05" fill="#54d500"/><path d="M2484.9 862.74c0 22.1-17.9 40-40 40s-40-17.9-40-40 17.9-40 40-40 40 17.9 40 40z" stroke="#000" stroke-opacity="0" stroke-width="8" fill="#54d500"/><path d="M2327.72 997.58l88.35-101.68" stroke="#54d500" stroke-width="8" fill="none"/><path d="M2330.8 1000.12l-2.83 3.26-1.82-1.9-3.88-3.2-.3-.2 2.8-3.2zM2417.64 892l3.88 3.2.3.2-2.8 3.2-6.03-5.24 2.82-3.26z" stroke="#54d500" stroke-width=".05" fill="#54d500"/><path d="M2448.23 818.94l30.44-400.14" stroke="#54d500" stroke-width="8" fill="none"/><path d="M2452.22 819.14l-.32 4.3-1.97-.4-5.03-.3-.98.03.33-4.23zM2476.72 414.64l.24.05 2 .1 4 .3-.3 4.1-8-.6.32-4.1z" stroke="#54d500" stroke-width=".05" fill="#54d500"/><path d="M2776.9 918.74c0 22.1-17.9 40-40 40s-40-17.9-40-40 17.9-40 40-40 40 17.9 40 40z" stroke="#000" stroke-opacity="0" stroke-width="8" fill="#54d500"/><path d="M2488.04 871l205.7 39.47" stroke="#54d500" stroke-width="8" fill="none"/><path d="M2488.9 867.1l-1.52 7.86-4.2-.8.47-1.5.93-4.88.1-1.48zM2698.43 907.3l-.28 1.47v.04l-.47 2.42-.75 3.93-4.03-.77 1.5-7.86z" stroke="#54d500" stroke-width=".05" fill="#54d500"/><path d="M2202 1278.74c0 22.1-17.9 40-40 40s-40-17.9-40-40 17.9-40 40-40 40 17.9 40 40zM2642 1515c0 22.1-17.9 40-40 40s-40-17.9-40-40 17.9-40 40-40 40 17.9 40 40zM2982 1470.74c0 22.1-17.9 40-40 40s-40-17.9-40-40 17.9-40 40-40 40 17.9 40 40zM3022 1110.74c0 22.1-17.9 40-40 40s-40-17.9-40-40 17.9-40 40-40 40 17.9 40 40z" stroke="#000" stroke-opacity="0" stroke-width="8" fill="#54d500"/><path d="M2200.76 1299.55l362.48 194.64" stroke="#54d500" stroke-width="8" fill="none"/><path d="M2202.74 1296.08l-3.78 7.04-3.84-2.05 2-3.18 1.8-3.87zM2568.88 1492.67l-2 3.18-1.8 3.86-3.82-2.04 3.78-7.04z" stroke="#54d500" stroke-width=".05" fill="#54d500"/><path d="M2632.13 1482.95l319.74-340.16" stroke="#54d500" stroke-width="8" fill="none"/><path d="M2635.1 1485.6l-2.8 3-2.9-2.74-.14-.13-.13-.1-2.66-2.5 2.8-3zM2954.74 1140l2.95 2.44-2.98 3.17-5.83-5.47 2.96-3.16z" stroke="#54d500" stroke-width=".05" fill="#54d500"/><path d="M2645.56 1509.33l252.88-32.92" stroke="#54d500" stroke-width="8" fill="none"/><path d="M2646.18 1513.28l-4.22.55-.06-1.7-.66-4.96-.34-1.27 4.25-.55zM2902.1 1473.6l.67 4.97.33 1.27-4.24.55-1.04-7.94 4.22-.55z" stroke="#54d500" stroke-width=".05" fill="#54d500"/><path d="M3702 1235c0 22.1-17.9 40-40 40s-40-17.9-40-40 17.9-40 40-40 40 17.9 40 40z" stroke="#000" stroke-opacity="0" stroke-width="8" fill="#54d500"/><path d="M2983.82 1457.05l636.36-208.36" stroke="#54d500" stroke-width="8" fill="none"/><path d="M2985.16 1460.82l-4.12 1.35-1.07-4.05-1.43-3.55 4.13-1.36zM3624.03 1247.62l1.43 3.55-4.13 1.35-2.5-7.6 4.13-1.35z" stroke="#54d500" stroke-width=".05" fill="#54d500"/><path d="M3618.78 1227.1l-593.57-108.46" stroke="#54d500" stroke-width="8" fill="none"/><path d="M3623.6 1223.92l-.36 1.15-.93 4.9-.1 1.82-4.24-.78 1.44-7.87zM3026.03 1114.72l-1.43 7.87-4.04-.75.72-3.93.4-2.14v-.12l.32-1.68z" stroke="#54d500" stroke-width=".05" fill="#54d500"/><path d="M4082 1095c0 22.1-17.9 40-40 40s-40-17.9-40-40 17.9-40 40-40 40 17.9 40 40z" stroke="#000" stroke-opacity="0" stroke-width="8" fill="#54d500"/><path d="M3703.24 1219.8l297.52-109.6" stroke="#54d500" stroke-width="8" fill="none"/><path d="M3704.72 1223.52l-4.05 1.5-.7-2.64-1.86-4.6-.15-.3 4-1.46zM4003.93 1107.22l.1.4.48 1.2 1.4 3.75-3.86 1.4-2.76-7.5 3.85-1.4z" stroke="#54d500" stroke-width=".05" fill="#54d500"/><path d="M3068.9 750.74c0 22.1-17.9 40-40 40s-40-17.9-40-40 17.9-40 40-40 40 17.9 40 40zM3214.9 582.74c0 22.1-17.9 40-40 40s-40-17.9-40-40 17.9-40 40-40 40 17.9 40 40zM3360.9 974.74c0 22.1-17.9 40-40 40s-40-17.9-40-40 17.9-40 40-40 40 17.9 40 40zM3791.9 448.73c0 22.1-17.9 40-40 40s-40-17.9-40-40 17.9-40 40-40 40 17.9 40 40z" stroke="#000" stroke-opacity="0" stroke-width="8" fill="#54d500"/><path d="M3063.68 724.4l73.38-120.37" stroke="#54d500" stroke-width="8" fill="none"/><path d="M3067.14 726.4l-3.2 5.23-1.36-2.47-2.97-4.04-.63-.68 1.34-2.2zM3138.78 599.96l2.43 4.36.2.27-.98 1.6-6.83-4.17 3.62-5.95z" stroke="#54d500" stroke-width=".05" fill="#54d500"/><path d="M3217.7 572.8l491.38-114.13" stroke="#54d500" stroke-width="8" fill="none"/><path d="M3218.7 576.67l-4 .93-.52-2.3-.05-.38-.32-1.22-.9-3.9 4-.92zM3712.66 456.55l1.27 4.8.1.28-4.14.96-1.82-7.8 4.2-.98z" stroke="#54d500" stroke-width=".05" fill="#54d500"/><path d="M3190.23 623.92l115.33 309.64" stroke="#54d500" stroke-width="8" fill="none"/><path d="M3194.02 622.62l-7.5 2.8-1.5-4.05 2.5-.66 4.6-1.85.4-.23zM3310.78 936.1l-2.5.67-4.6 1.86-.42.23-1.5-4 7.5-2.8z" stroke="#54d500" stroke-width=".05" fill="#54d500"/><path d="M3652.9 806.74c0 22.1-17.9 40-40 40s-40-17.9-40-40 17.9-40 40-40 40 17.9 40 40z" stroke="#000" stroke-opacity="0" stroke-width="8" fill="#54d500"/><path d="M3358.97 952.83l215.85-124.18" stroke="#54d500" stroke-width="8" fill="none"/><path d="M3361.06 956.25l-3.7 2.13-.35-.86-2.42-4.36-1.25-1.7 3.74-2.15zM3576.78 823.96l2.43 4.36 1.26 1.7-3.74 2.15-4-6.94 3.7-2.13z" stroke="#54d500" stroke-width=".05" fill="#54d500"/><path d="M3628.82 765.72l107.15-275.97" stroke="#54d500" stroke-width="8" fill="none"/><path d="M3632.6 767.08l-1.6 4.05-3.46-1.62-3.98-1.28 1.57-4.04zM3737.1 485.9l.15.06.17.06 3.73 1.44-1.5 3.83-7.45-2.9 1.5-3.83z" stroke="#54d500" stroke-width=".05" fill="#54d500"/><path d="M3922 855c0 22.1-17.9 40-40 40s-40-17.9-40-40 17.9-40 40-40 40 17.9 40 40z" stroke="#000" stroke-opacity="0" stroke-width="8" fill="#54d500"/><path d="M3656.14 814.5l182.62 32.74" stroke="#54d500" stroke-width="8" fill="none"/><path d="M3656.94 810.58l-1.4 7.87-4.22-.76.33-1.03.93-4.9.12-1.95zM3843.4 844l-.7 3.95-.4 2v.2l-.3 1.74-4.05-.74 1.4-7.87z" stroke="#54d500" stroke-width=".05" fill="#54d500"/><path d="M2682 175c0 22.1-17.9 40-40 40s-40-17.9-40-40 17.9-40 40-40 40 17.9 40 40zM2942 55c0 22.1-17.9 40-40 40s-40-17.9-40-40 17.9-40 40-40 40 17.9 40 40zM2995.9 414.74c0 22.1-17.9 40-40 40s-40-17.9-40-40 17.9-40 40-40 40 17.9 40 40zM3262 100.88c0 22.1-17.9 40-40 40s-40-17.9-40-40 17.9-40 40-40 40 17.9 40 40z" stroke="#000" stroke-opacity="0" stroke-width="8" fill="#54d500"/><path d="M2681.93 156.57l180.14-83.14" stroke="#54d500" stroke-width="8" fill="none"/><path d="M2683.7 160.16l-3.9 1.8-1.7-4.18-1.7-3.07 3.95-1.8zM2865.9 72.22l1.7 3.06-3.95 1.83-3.35-7.26 3.9-1.8z" stroke="#54d500" stroke-width=".05" fill="#54d500"/><path d="M2945.53 61.24l232.94 33.4" stroke="#54d500" stroke-width="8" fill="none"/><path d="M2946.2 57.3l-1.14 7.9-4.06-.57.56-3.96.13-.63v-.36l.43-2.97zM3183.18 91.27l-.87 4.57-.2 3.36-4.3-.62 1.14-7.92z" stroke="#54d500" stroke-width=".05" fill="#54d500"/><path d="M2908.5 98.45l40.9 272.84" stroke="#54d500" stroke-width="8" fill="none"/><path d="M2912.48 97.95l-7.9 1.2-.64-4.22.93-.03 4.95-.67 2.02-.53zM2953.96 374.8l-.94.04-4.95.67-2.02.54-.64-4.25 7.93-1.2z" stroke="#54d500" stroke-width=".05" fill="#54d500"/><path d="M3433.9 302.74c0 22.1-17.9 40-40 40s-40-17.9-40-40 17.9-40 40-40 40 17.9 40 40z" stroke="#000" stroke-opacity="0" stroke-width="8" fill="#54d500"/><path d="M2998.46 403.86l352.87-90.24" stroke="#54d500" stroke-width="8" fill="none"/><path d="M2999.55 407.7l-4.17 1.07-.25-1.86-1.27-4.78-.44-1.1 4.15-1.07zM3354.66 310.57l1.27 4.8.44 1.1-4.15 1.06-1.98-7.76 4.17-1.06z" stroke="#54d500" stroke-width=".05" fill="#54d500"/><path d="M3365.38 269.26l-114.87-134.9" stroke="#54d500" stroke-width="8" fill="none"/><path d="M3371.18 269.9l-2.9 2.12-3.2 3.04-2.8-3.3 6.08-5.17zM3253.62 131.85l-6.1 5.18-2.65-3.12 2.5-2.13.25-.17.3-.28 3.04-2.6z" stroke="#54d500" stroke-width=".05" fill="#54d500"/><path d="M3682 175c0 22.1-17.9 40-40 40s-40-17.9-40-40 17.9-40 40-40 40 17.9 40 40z" stroke="#000" stroke-opacity="0" stroke-width="8" fill="#54d500"/><path d="M3432.97 282.62l169.95-87.5" stroke="#54d500" stroke-width="8" fill="none"/><path d="M3434.9 286.13l-3.85 1.98-1.04-2.58-2.42-4.36-.14-.2 3.8-1.94zM3605.73 191.82l.16.4.58 1.07 1.83 3.54-3.64 1.88-3.66-7.1 3.65-1.9z" stroke="#54d500" stroke-width=".05" fill="#54d500"/><path d="M2990.8 772.65L2775 896.83" stroke="#54d500" stroke-width="8" fill="none"/><path d="M2994.28 770.65l.93 1.67.15.2.93 1.6-3.56 2.05-4-6.94 3.57-2.04zM2777.06 900.25l-3.7 2.13-.35-.86-2.42-4.36-1.25-1.7 3.74-2.15z" stroke="#54d500" stroke-width=".05" fill="#54d500"/><path d="M2509.44 340.7l105.12-131.4" stroke="#54d500" stroke-width="8" fill="none"/><path d="M2512.63 343.12l-2.68 3.34-.7-.73-3.87-3.2-1.68-1.05 2.68-3.36zM2614.74 204.27l3.88 3.2 1.68 1.05-2.68 3.36-6.25-5 2.68-3.34z" stroke="#54d500" stroke-width=".05" fill="#54d500"/><path d="M2455.18 905.46l136.53 566.82" stroke="#54d500" stroke-width="8" fill="none"/><path d="M2459.1 904.62l-7.78 1.88-1-4.2 2.4-.33 4.8-1.26.58-.23zM2596.6 1475.44l-2.42.32-4.8 1.27-.58.24-1-4.15 7.78-1.88z" stroke="#54d500" stroke-width=".05" fill="#54d500"/><path d="M2110.14 990.97l-154.28-465.1" stroke="#54d500" stroke-width="8" fill="none"/><path d="M2115.28 993.74l-3.9 1.03-3.7 1.5-1.36-4.14 7.6-2.52zM1959.68 524.7l-7.6 2.53-1.36-4.13 3.9-1.03 3.7-1.5z" stroke="#54d500" stroke-width=".05" fill="#54d500"/><path d="M1652.28 1867.82l-570.04 6.67" stroke="#54d500" stroke-width="8" fill="none"/><path d="M1656.26 1867.3l.1 2.87.2 1.6-4.34.05-.1-8 4.36-.05zM1082.4 1878.48l-4.1.05-.05-3.38v-.62l-.05-4 4.1-.05z" stroke="#54d500" stroke-width=".05" fill="#54d500"/><path d="M3695.2 1263.8l329.5 285.76" stroke="#54d500" stroke-width="8" fill="none"/><path d="M3697.9 1260.83l-5.25 6.05-3.26-2.83 1.87-1.8 3.2-3.87.2-.34zM4030.5 1549.3l-1.88 1.8-3.18 3.87-.22.33-3.22-2.8 5.24-6.03z" stroke="#54d500" stroke-width=".05" fill="#54d500"/><path d="M4104.9 35c0 22.1-17.9 40-40 40s-40-17.9-40-40 17.9-40 40-40 40 17.9 40 40zM157.83 608.66c15.54 15.7 15.4 41.03-.3 56.57-15.7 15.54-41.02 15.4-56.56-.3-15.54-15.7-15.4-41.02.3-56.56 15.7-15.54 41.02-15.4 56.56.3zM160.52 324.03c15.54 15.7 15.4 41.02-.3 56.56-15.7 15.53-41.03 15.4-56.57-.3-15.54-15.7-15.4-41.03.3-56.57 15.7-15.54 41.03-15.4 56.57.3zM527.92 439.4c15.54 15.7 15.4 41.03-.3 56.56-15.7 15.54-41.03 15.4-56.57-.3-15.53-15.7-15.4-41.02.3-56.56 15.7-15.54 41.03-15.4 56.57.3zM430.63 113.6c15.54 15.72 15.4 41.04-.3 56.58-15.7 15.54-41.03 15.4-56.56-.3-15.54-15.7-15.4-41.02.3-56.56 15.7-15.54 41.02-15.4 56.56.3z" stroke="#000" stroke-opacity="0" stroke-width="8" fill="#54d500"/><path d="M136.2 593.52L119.56 394" stroke="#54d500" stroke-width="8" fill="none"/><path d="M140.6 598.48l-2.44-.7-4.95-.8-.74-.03-.27-3.2 7.96-.67zM118.53 389.8l4.8 1.4h.03l.2 2.57-7.96.66-.5-6.1z" stroke="#54d500" stroke-width=".05" fill="#54d500"/><path d="M166.78 325.13L367.5 168.78" stroke="#54d500" stroke-width="8" fill="none"/><path d="M169.32 328.22l-3.23 2.52-2.12-2.7-.14-.2-.2-.25-2.47-3.17 3.24-2.52zM370.45 166.08l2.84 3.26-3.42 2.66-4.92-6.3 3.42-2.68z" stroke="#54d500" stroke-width=".05" fill="#54d500"/><path d="M174 365.33l283.57 89.04" stroke="#54d500" stroke-width="8" fill="none"/><path d="M175.3 361.54l-2.4 7.63-4.1-1.3.93-2.16 1.4-4.78.1-.66zM462.78 451.8l-.94 2.18-1.4 4.8-.1.65-4.07-1.28 2.4-7.63z" stroke="#54d500" stroke-width=".05" fill="#54d500"/><path d="M727.83 72.74c15.54 15.7 15.4 41.03-.3 56.57-15.7 15.55-41.02 15.42-56.56-.28s-15.4-41.03.3-56.57c15.7-15.54 41.02-15.4 56.56.3z" stroke="#000" stroke-opacity="0" stroke-width="8" fill="#54d500"/><path d="M520.53 428.94l157.83-289.47" stroke="#54d500" stroke-width="8" fill="none"/><path d="M524.1 430.77l-2.05 3.74-.18-.13-4.27-2.5-2.6-1.14 2.07-3.8zM677.02 134.04l4.27 2.52 2.6 1.12-2.08 3.8-7.02-3.83 2.04-3.75z" stroke="#54d500" stroke-width=".05" fill="#54d500"/><path d="M655.85 106.87l-210.1 28.9" stroke="#54d500" stroke-width="8" fill="none"/><path d="M659.88 107.1l.7 3.16-4.3.6-1.08-7.94 4.24-.58zM446.4 139.7l-4.07.57-.54-3.96-.08-.76-.1-.42-.38-2.78 4.07-.56z" stroke="#54d500" stroke-width=".05" fill="#54d500"/><path d="M739.97 83.86L1157.7-91.4" stroke="#54d500" stroke-width="8" fill="none"/><path d="M741.6 87.5l-3.98 1.68-1.45-4.08-1.66-3.3 4-1.67zM1161.38-92.96l.1.3.13.23 1.33 3.16-3.78 1.6-3.1-7.4 3.78-1.58z" stroke="#54d500" stroke-width=".05" fill="#54d500"/><path d="M1138.6 311.84l-407.4-180.9" stroke="#54d500" stroke-width="8" fill="none"/><path d="M1144.18 309.93l-1.05 1.66-2.1 4.5-.34 1.04-3.82-1.7 3.25-7.3zM732.9 127.32l-3.24 7.3-5.44-2.4 3.32-2.9 1.97-2.1.82-1.05z" stroke="#54d500" stroke-width=".05" fill="#54d500"/><path d="M3778.4 413.67l284.05-376.02" stroke="#54d500" stroke-width="8" fill="none"/><path d="M3781.66 416l-2.57 3.4-3.83-3.13-2.6-1.64 2.6-3.45z" stroke="#54d500" stroke-width=".05" fill="#54d500"/><path d="M4062.4 37.73l2.46-3.27" stroke="#54d500" stroke-width="8" fill="none"/><path d="M287.5 1886.63c-21.1 6.58-43.53-5.18-50.1-26.27-6.58-21.1 5.18-43.52 26.27-50.1 21.1-6.58 43.52 5.18 50.1 26.27 6.57 21.1-5.2 43.52-26.28 50.1zM544.05 2036c-21.1 6.58-43.52-5.18-50.1-26.27-6.58-21.1 5.2-43.52 26.28-50.1 21.1-6.58 43.52 5.2 50.1 26.27 6.57 21.1-5.2 43.52-26.28 50.1zM284.28 2346.45c-21.1 6.58-43.5-5.2-50.1-26.28-6.57-21.08 5.2-43.5 26.28-50.1 21.1-6.57 43.52 5.2 50.1 26.28 6.58 21.1-5.2 43.52-26.28 50.1zM657.63 2535.86c-21.1 6.58-43.52-5.2-50.1-26.27-6.58-21.1 5.2-43.53 26.28-50.1 21.1-6.6 43.52 5.17 50.1 26.26 6.58 21.1-5.18 43.52-26.27 50.1z" stroke="#000" stroke-opacity="0" stroke-width="8" fill="#54d500"/><path d="M310.8 1874.6l190.04 92.66" stroke="#54d500" stroke-width="8" fill="none"/><path d="M312.64 1871.04l-3.5 7.2-4.63-2.27 1.72-1.8 2.97-4.03.33-.62zM507.75 1966.18l-2.8 2.3-3.4 3.57-2.56-1.24 3.5-7.18z" stroke="#54d500" stroke-width=".05" fill="#54d500"/><path d="M541.87 2040.65l94.12 414.2" stroke="#54d500" stroke-width="8" fill="none"/><path d="M545.8 2039.87l-7.8 1.77-.9-4 1.76-.4.3-.04 1.83-.45 3.9-.88zM640.82 2458.04l-2.1.25-4.9 1.2-.82.27-.94-4.15 7.8-1.77z" stroke="#54d500" stroke-width=".05" fill="#54d500"/><path d="M503.9 2031.56l-203.3 242.96" stroke="#54d500" stroke-width="8" fill="none"/><path d="M506.4 2028.45l3.3 2.42-2.8 3.34-6.13-5.13 2.8-3.33zM303.74 2277l-2.8 3.34-2.84-2.7-3.28-2.43 2.8-3.33z" stroke="#54d500" stroke-width=".05" fill="#54d500"/><path d="M594.5 2937.9c-21.1 6.58-43.52-5.18-50.1-26.27-6.58-21.1 5.18-43.52 26.27-50.1 21.1-6.58 43.52 5.18 50.1 26.27 6.58 21.1-5.18 43.52-26.27 50.1z" stroke="#000" stroke-opacity="0" stroke-width="8" fill="#54d500"/><path d="M292.8 2347.2l269.36 513.58" stroke="#54d500" stroke-width="8" fill="none"/><path d="M296.4 2345.44l-7.1 3.7-2-3.8 4.23-1.95 2.84-1.8zM567.65 2862.63l-4.22 1.96-2.85 1.78-2-3.84 7.08-3.7z" stroke="#54d500" stroke-width=".05" fill="#54d500"/><path d="M589.4 2856.3l49.5-315.22" stroke="#54d500" stroke-width="8" fill="none"/><path d="M593.37 2856.83l-.67 4.26-2.3-.62-4.92-.67h-.68l.67-4.2zM637.6 2536.82l.3.1 1.62.2 3.95.63-.63 4.05-7.9-1.24.63-4.05z" stroke="#54d500" stroke-width=".05" fill="#54d500"/><path d="M1100.97 2627.72L621.52 2879.3" stroke="#54d500" stroke-width="8" fill="none"/><path d="M1103.77 2624.53l2.43 4.36.32.43-3.78 1.98-3.72-7.07 3.82-2zM623.47 2882.78l-3.8 2-1.96-4.22-1.78-2.85 3.83-2z" stroke="#54d500" stroke-width=".05" fill="#54d500"/><path d="M61.96 1628.05c20.52-8.2 43.8 1.8 51.98 22.33 8.18 20.5-1.8 43.78-22.33 51.97-20.5 8.2-43.78-1.8-51.97-22.33-8.18-20.52 1.8-43.8 22.33-51.97zM376.12 1444.7c20.52-8.2 43.8 1.8 51.98 22.32s-1.8 43.78-22.33 51.97c-20.52 8.18-43.8-1.82-51.98-22.34-8.2-20.52 1.8-43.8 22.32-51.97zM-14 1313.83c20.52-8.2 43.8 1.8 51.97 22.33 8.2 20.5-1.8 43.78-22.33 51.97-20.5 8.2-43.8-1.8-51.97-22.33-8.2-20.52 1.8-43.8 22.33-51.97z" stroke="#000" stroke-opacity="0" stroke-width="8" fill="#54d500"/><path d="M252.67 1831.96l-143.97-136.5M252.6 1831.9l2.97 2.8" stroke="#54d500" stroke-width="8" fill="none"/><path d="M111.53 1692.63l-5.5 5.8-3.13-2.96 3.26-3.1 2.22-2.73z" stroke="#54d500" stroke-width=".05" fill="#54d500"/><path d="M66.45 1622.46l-55.3-228.74" stroke="#54d500" stroke-width="8" fill="none"/><path d="M71.28 1625.4l-3.9.95-.62.12-.35.1-2.9.72-.96-4 7.78-1.88zM15.07 1392.88l-7.78 1.88-1.02-4.17 4.57-.9 3.2-1.05z" stroke="#54d500" stroke-width=".05" fill="#54d500"/><path d="M114.73 1643.05L353 1503.98" stroke="#54d500" stroke-width="8" fill="none"/><path d="M116.83 1646.46l-3.67 2.14-.38-.85-2.45-4.36-1.25-1.7 3.72-2.15zM354.95 1499.3l2.45 4.35 1.25 1.67-3.72 2.17-4.03-6.92 3.67-2.14z" stroke="#54d500" stroke-width=".05" fill="#54d500"/><path d="M109.8 1079.37c20.5-8.2 43.78 1.8 51.97 22.33 8.2 20.52-1.8 43.8-22.33 51.97-20.52 8.2-43.8-1.8-51.98-22.33-8.18-20.52 1.82-43.8 22.33-51.97z" stroke="#000" stroke-opacity="0" stroke-width="8" fill="#54d500"/><path d="M365.06 1446.34L150.5 1152.02" stroke="#54d500" stroke-width="8" fill="none"/><path d="M370.77 1447.38l-1.63.92-4 2.95-.85.82-2.53-3.46 6.47-4.7zM153.8 1149.75l-6.47 4.7-2.54-3.47 1.62-.92 4-2.95.85-.8z" stroke="#54d500" stroke-width=".05" fill="#54d500"/><path d="M104.08 1155.4l-82.72 156.7" stroke="#54d500" stroke-width="8" fill="none"/><path d="M105.58 1151.7l4 1.85-2 3.82-7.08-3.74 2.03-3.84zM24.94 1313.87l-1.9 3.62-2.93-1.55-.24-.15-.37-.18-3.55-1.86 1.92-3.63z" stroke="#54d500" stroke-width=".05" fill="#54d500"/><path d="M91.45 1087.68L-52.8 962.25" stroke="#54d500" stroke-width="8" fill="none"/><path d="M97.26 1087.43l-2.02 1.93-3.15 3.87-.13.2-3.22-2.8 5.25-6.04zM-50.1 959.3l-5.25 6.04-3.1-2.7 1.55-1.77.3-.3.78-.95 2.63-3z" stroke="#54d500" stroke-width=".05" fill="#54d500"/><path d="M4202 582.74c0 22.1-17.9 40-40 40s-40-17.9-40-40 17.9-40 40-40 40 17.9 40 40z" stroke="#000" stroke-opacity="0" stroke-width="8" fill="#54d500"/><path d="M3913.5 824.38l217-211.02" stroke="#54d500" stroke-width="8" fill="none"/><path d="M3916.35 827.17l-3.06 3-.58-.8-3.46-3.64-1.57-1.3 3.08-3zM4131.28 608.36l3.46 3.65 1.57 1.3-3.08 3-5.57-5.73 3.06-3z" stroke="#54d500" stroke-width=".05" fill="#54d500"/><path d="M3793.65 462.38l326.6 106.7" stroke="#54d500" stroke-width="8" fill="none"/><path d="M3795 458.6l-2.5 7.6-4.07-1.32.7-1.5 1.52-4.72.27-1.4zM4125.47 566.6l-.7 1.5-1.53 4.7-.26 1.4-4.08-1.34 2.5-7.6z" stroke="#54d500" stroke-width=".05" fill="#54d500"/><path d="M2402 35c0 22.1-17.9 40-40 40s-40-17.9-40-40 17.9-40 40-40 40 17.9 40 40zM1922-11.86c0 22.1-17.9 40-40 40s-40-17.9-40-40 17.9-40 40-40 40 17.9 40 40z" stroke="#000" stroke-opacity="0" stroke-width="8" fill="#54d500"/><path d="M1521.25 65.75L1839-2.6" stroke="#54d500" stroke-width="8" fill="none"/><path d="M1522.2 69.64l-4.25.9-.46-3.36-1.18-4.46 4.2-.9zM1842.77-4.04l1.17 4.45-4.2.92-1.67-7.82 4.24-.92z" stroke="#54d500" stroke-width=".05" fill="#54d500"/><path d="M2598.55 172.98L2365.95 37.2" stroke="#54d500" stroke-width="8" fill="none"/><path d="M2602.28 170.53L2602 175l.1 2.87.27 1.98-5.93-3.46 4.03-6.92z" stroke="#54d500" stroke-width=".05" fill="#54d500"/><path d="M2366.03 37.26l-3.54-2.07" stroke="#54d500" stroke-width="8" fill="none"/></g></svg>