<svg xmlns="http://www.w3.org/2000/svg" xmlns:lucid="lucid" width="4366.72" height="3309.66"><g lucid:page-tab-id="0_0"><path d="M854.7 2305.66c0 22.1-17.9 40-40 40s-40-17.9-40-40 17.9-40 40-40 40 17.9 40 40zM1112.7 2477.96c0 22.1-17.9 40-40 40s-40-17.9-40-40 17.9-40 40-40 40 17.9 40 40zM1132.7 2797.96c0 22.1-17.9 40-40 40s-40-17.9-40-40 17.9-40 40-40 40 17.9 40 40zM1372.7 2445.66c0 22.1-17.9 40-40 40s-40-17.9-40-40 17.9-40 40-40 40 17.9 40 40z" stroke="#000" stroke-opacity="0" stroke-width="8" fill="#54d500"/><path d="M851.25 2330.06l184.9 123.5" stroke="#54d500" stroke-width="8" fill="none"/><path d="M853.55 2326.8l-4.44 6.64-3.58-2.4 1.65-2 2.66-4.23.18-.38zM1041.9 2452.57l-1.65 2-2.67 4.24-.18.4-3.54-2.37 4.44-6.66z" stroke="#54d500" stroke-width=".05" fill="#54d500"/><path d="M1116.3 2472.54l172.8-21.47" stroke="#54d500" stroke-width="8" fill="none"/><path d="M1116.9 2476.5l-4.08.5-.2-1.7-.02-.2-.27-2.06-.5-3.97 4.08-.5zM1292.8 2448.53l.67 4.95.28 1.05-4.25.52-.98-7.93 4.22-.53z" stroke="#54d500" stroke-width=".05" fill="#54d500"/><path d="M1075.45 2521.86l14.5 232.2" stroke="#54d500" stroke-width="8" fill="none"/><path d="M1079.45 2521.72l-8 .5-.26-4.35 1.5.1 2.88-.1 3.6-.5zM1094.22 2758.06l-1.5-.1-2.9.1-3.6.48-.26-4.34 8-.5z" stroke="#54d500" stroke-width=".05" fill="#54d500"/><path d="M1352.7 2657.96c0 22.1-17.9 40-40 40s-40-17.9-40-40 17.9-40 40-40 40 17.9 40 40z" stroke="#000" stroke-opacity="0" stroke-width="8" fill="#54d500"/><path d="M1129.82 2774.34l145.77-92.76" stroke="#54d500" stroke-width="8" fill="none"/><path d="M1132.06 2777.66l-3.66 2.33-2-3.62-2.3-3.13 3.66-2.34zM1279.02 2679.54l2.3 3.13-3.67 2.34-4.3-6.74 3.66-2.33z" stroke="#54d500" stroke-width=".05" fill="#54d500"/><path d="M1316.83 2614.2l11.75-124.8" stroke="#54d500" stroke-width="8" fill="none"/><path d="M1320.82 2614.5l-.4 4.28-2.68-.5-5.03-.32h-.25l.4-4.23zM1327.24 2485.26l.43.08 1.3.08 3.97.38-.38 4.08-7.97-.75.38-4.08z" stroke="#54d500" stroke-width=".05" fill="#54d500"/><path d="M1629.08 2745.66c0 22.1-17.9 40-40 40s-40-17.9-40-40 17.9-40 40-40 40 17.9 40 40z" stroke="#000" stroke-opacity="0" stroke-width="8" fill="#54d500"/><path d="M1354.58 2671.25l192.63 61.12" stroke="#54d500" stroke-width="8" fill="none"/><path d="M1355.9 2667.47l-2.43 7.62-4.1-1.3.57-1.2 1.52-4.7.33-1.73zM1552.23 2729.77l-1.2 3.8-.7 2.16-.02.1-.5 1.56-3.9-1.25 2.42-7.62z" stroke="#54d500" stroke-width=".05" fill="#54d500"/><path d="M1272.7 3105.66c0 22.1-17.9 40-40 40s-40-17.9-40-40 17.9-40 40-40 40 17.9 40 40zM1474.82 2905.22c0 22.1-17.9 40-40 40s-40-17.9-40-40 17.9-40 40-40 40 17.9 40 40zM1654.82 3245.66c0 22.1-17.9 40-40 40s-40-17.9-40-40 17.9-40 40-40 40 17.9 40 40zM1814.82 2945.66c0 22.1-17.9 40-40 40s-40-17.9-40-40 17.9-40 40-40 40 17.9 40 40z" stroke="#000" stroke-opacity="0" stroke-width="8" fill="#54d500"/><path d="M1267.97 3079.67l128.53-153.5" stroke="#54d500" stroke-width="8" fill="none"/><path d="M1271.1 3082.15l-3.47 4.15-1.24-2.23-2.98-4.04-.52-.54 2.07-2.48zM1398.7 2922.45l2.44 4.36.02.03-1.65 1.98-6.13-5.13 3.94-4.7z" stroke="#54d500" stroke-width=".05" fill="#54d500"/><path d="M1478.5 2910.42l252.65 30.04" stroke="#54d500" stroke-width="8" fill="none"/><path d="M1479.08 2906.46l-.95 7.94-4.07-.48.4-3.4.05-.26.03-.32.47-3.97zM1735.83 2937l-.7 3.62-.26 4.3-4.3-.5.95-7.94z" stroke="#54d500" stroke-width=".05" fill="#54d500"/><path d="M1455.36 2944.07l138.93 262.74" stroke="#54d500" stroke-width="8" fill="none"/><path d="M1458.95 2942.3l-7.08 3.73-2-3.8 2.18-.9 4.36-2.42.55-.4zM1599.8 3208.66l-2.2.9-4.36 2.4-.54.4-2-3.77 7.07-3.75z" stroke="#54d500" stroke-width=".05" fill="#54d500"/><path d="M2054.82 3125.66c0 22.1-17.9 40-40 40s-40-17.9-40-40 17.9-40 40-40 40 17.9 40 40z" stroke="#000" stroke-opacity="0" stroke-width="8" fill="#54d500"/><path d="M1656.93 3233.03l315.8-94.74" stroke="#54d500" stroke-width="8" fill="none"/><path d="M1658.17 3236.83l-4.08 1.22-.04-.22-1.27-4.8-1.07-2.62 4.14-1.23zM1975.6 3133.48l1.26 4.8 1.06 2.63-4.14 1.25-2.3-7.67 4.08-1.22z" stroke="#54d500" stroke-width=".05" fill="#54d500"/><path d="M1979.66 3099.28L1810 2972.03" stroke="#54d500" stroke-width="8" fill="none"/><path d="M1985.4 3098.6l-3.04 3.68-1.72 2.74-3.47-2.6 4.8-6.4zM1812.48 2968.9l-4.8 6.4-3.3-2.47 2.4-3.2.5-.6.23-.35 1.7-2.25z" stroke="#54d500" stroke-width=".05" fill="#54d500"/><path d="M2694.82 3105.66c0 22.1-17.9 40-40 40s-40-17.9-40-40 17.9-40 40-40 40 17.9 40 40z" stroke="#000" stroke-opacity="0" stroke-width="8" fill="#54d500"/><path d="M2058.78 3124.28l552.1-17.25" stroke="#54d500" stroke-width="8" fill="none"/><path d="M2059 3128.28l-4.35.13.17-2.74-.1-2.87-.3-2.38 4.34-.14zM2614.83 3105.6v.06l.04 1.25.12 4-4.1.13-.26-8 4.1-.12z" stroke="#54d500" stroke-width=".05" fill="#54d500"/><path d="M1789.08 2605.66c0 22.1-17.9 40-40 40s-40-17.9-40-40 17.9-40 40-40 40 17.9 40 40zM1909.08 2497.96c0 22.1-17.9 40-40 40s-40-17.9-40-40 17.9-40 40-40 40 17.9 40 40zM1974.82 2755.22c0 22.1-17.9 40-40 40s-40-17.9-40-40 17.9-40 40-40 40 17.9 40 40zM2274.82 2345.66c0 22.1-17.9 40-40 40s-40-17.9-40-40 17.9-40 40-40 40 17.9 40 40z" stroke="#000" stroke-opacity="0" stroke-width="8" fill="#54d500"/><path d="M1784.22 2579.56l46.67-60.56" stroke="#54d500" stroke-width="8" fill="none"/><path d="M1787.45 2581.92l-3.4 4.44-1.28-2.3-2.97-4.03-.54-.57 1.86-2.42zM1832.97 2515.2l2.43 4.34.06.08-1.46 1.9-6.34-4.88 3.87-5.03z" stroke="#54d500" stroke-width=".05" fill="#54d500"/><path d="M1909.64 2481.07l284.63-118.52" stroke="#54d500" stroke-width="8" fill="none"/><path d="M1911.28 2484.72l-3.8 1.58-1.53-3.7-.76-1.86-.1-.18-.7-1.64 3.8-1.58zM2196.86 2358.28l1.85 4.6.98 1.74-3.97 1.66-3.07-7.4 3.95-1.63z" stroke="#54d500" stroke-width=".05" fill="#54d500"/><path d="M1879.96 2540.53l44 172.13" stroke="#54d500" stroke-width="8" fill="none"/><path d="M1883.86 2539.64l-7.75 1.98-1.06-4.17 1.87-.25 4.8-1.27 1.1-.44zM1928.86 2715.74l-1.86.25-4.8 1.26-1.1.44-1.05-4.15 7.75-1.98z" stroke="#54d500" stroke-width=".05" fill="#54d500"/><path d="M2229.08 2605.66c0 22.1-17.9 40-40 40s-40-17.9-40-40 17.9-40 40-40 40 17.9 40 40z" stroke="#000" stroke-opacity="0" stroke-width="8" fill="#54d500"/><path d="M1972.7 2732.94l178.5-105" stroke="#54d500" stroke-width="8" fill="none"/><path d="M1974.8 2736.34l-3.66 2.16-.2-.5-2.43-4.36-1.46-2 3.72-2.2zM2152.97 2622.88l2.43 4.36 1.47 2-3.72 2.2-4.06-6.9 3.67-2.16z" stroke="#54d500" stroke-width=".05" fill="#54d500"/><path d="M2196.7 2562.4l30.5-173.47" stroke="#54d500" stroke-width="8" fill="none"/><path d="M2200.65 2562.98l-.74 4.2-.9-.28-4.88-.93-2.1-.13.75-4.25zM2227.9 2385l1.9.34.2.02 1.84.32-.7 4.04-7.88-1.4.7-4.03z" stroke="#54d500" stroke-width=".05" fill="#54d500"/><path d="M2634.82 2545.66c0 22.1-17.9 40-40 40s-40-17.9-40-40 17.9-40 40-40 40 17.9 40 40z" stroke="#000" stroke-opacity="0" stroke-width="8" fill="#54d500"/><path d="M2232.54 2599.23l318.83-47.15" stroke="#54d500" stroke-width="8" fill="none"/><path d="M2233.23 2603.17l-4.2.62-.05-1-.66-4.97-.52-1.94 4.26-.64zM2555.32 2551.5l.27 1.98.05.24.26 1.73-4.05.6-1.17-7.9 4.06-.6z" stroke="#54d500" stroke-width=".05" fill="#54d500"/><path d="M1574.82 2185.66c0 22.1-17.9 40-40 40s-40-17.9-40-40 17.9-40 40-40 40 17.9 40 40zM1689.08 2057.96c0 22.1-17.9 40-40 40s-40-17.9-40-40 17.9-40 40-40 40 17.9 40 40zM1709.08 2377.96c0 22.1-17.9 40-40 40s-40-17.9-40-40 17.9-40 40-40 40 17.9 40 40zM1949.08 2025.66c0 22.1-17.9 40-40 40s-40-17.9-40-40 17.9-40 40-40 40 17.9 40 40z" stroke="#000" stroke-opacity="0" stroke-width="8" fill="#54d500"/><path d="M1569.4 2159.2l42.07-79.83" stroke="#54d500" stroke-width="8" fill="none"/><path d="M1572.97 2160.97l-3 5.7-1.46-2.6-2.96-4.04-.72-.75 1.08-2.04zM1611.47 2071.46l1.5 3.73 2.43 4.34.3.4-.74 1.4-7.08-3.74 3.3-6.3z" stroke="#54d500" stroke-width=".05" fill="#54d500"/><path d="M1692.68 2052.54l172.8-21.47" stroke="#54d500" stroke-width="8" fill="none"/><path d="M1693.27 2056.5l-4.07.5-.2-1.7-.02-.2-.27-2.06-.5-3.97 4.1-.5zM1869.18 2028.53l.67 4.95.27 1.05-4.24.52-.98-7.93 4.22-.53z" stroke="#54d500" stroke-width=".05" fill="#54d500"/><path d="M1651.83 2101.86l14.5 232.2" stroke="#54d500" stroke-width="8" fill="none"/><path d="M1655.83 2101.72l-8 .5-.26-4.35 1.5.1 2.88-.1 3.6-.5zM1670.6 2338.06l-1.52-.1-2.87.1-3.6.48-.26-4.34 8-.5z" stroke="#54d500" stroke-width=".05" fill="#54d500"/><path d="M1980.55 2285.66c0 22.1-17.9 40-40 40s-40-17.9-40-40 17.9-40 40-40 40 17.9 40 40z" stroke="#000" stroke-opacity="0" stroke-width="8" fill="#54d500"/><path d="M1710.74 2363.8l188.16-63.98" stroke="#54d500" stroke-width="8" fill="none"/><path d="M1712.12 2367.55l-4.1 1.4-.97-3.6-1.6-3.98 4.1-1.4zM1902.58 2298.28l1.6 3.97-4.1 1.4-2.57-7.58 4.13-1.4z" stroke="#54d500" stroke-width=".05" fill="#54d500"/><path d="M1935.27 2242.05l-20.9-172.78" stroke="#54d500" stroke-width="8" fill="none"/><path d="M1939.74 2245.7l-2.06.06-4.95.66-.93.25-.5-4.25 7.93-.96zM1918.34 2068.9l-7.94.95-.5-4.07 1.76-.2.3-.02 1.92-.26 3.97-.48z" stroke="#54d500" stroke-width=".05" fill="#54d500"/><path d="M2194.82 2105.66c0 22.1-17.9 40-40 40s-40-17.9-40-40 17.9-40 40-40 40 17.9 40 40z" stroke="#000" stroke-opacity="0" stroke-width="8" fill="#54d500"/><path d="M1974.24 2257.36l146.9-123.4" stroke="#54d500" stroke-width="8" fill="none"/><path d="M1976.9 2260.36l-3.34 2.8-2.3-3.13-2.84-3 3.32-2.8zM2124.03 2131.18l.08.1.1.1 2.58 3.06-3.15 2.64-5.14-6.12 3.13-2.64z" stroke="#54d500" stroke-width=".05" fill="#54d500"/><path d="M1716 2634.6l-93.84 82.1" stroke="#54d500" stroke-width="8" fill="none"/><path d="M1718.1 2630.93l.27.35.65.7 2.63 3-3.1 2.7-5.26-6.02 3.08-2.7zM1624.87 2719.66l-3.25 2.85-1.82-2.47-3.4-3.6 3.2-2.8z" stroke="#54d500" stroke-width=".05" fill="#54d500"/><path d="M1359.67 2410.97l148.2-190.63" stroke="#54d500" stroke-width="8" fill="none"/><path d="M1362.9 2413.34l-2.63 3.37-.3-.32-3.9-3.18-2.14-1.36 2.65-3.4zM1507.56 2214.93l3.9 3.2 2.14 1.35-2.65 3.4-6.3-4.9 2.6-3.38z" stroke="#54d500" stroke-width=".05" fill="#54d500"/><path d="M1332.18 2697.4l83.17 168.4" stroke="#54d500" stroke-width="8" fill="none"/><path d="M1335.8 2695.7l-7.16 3.56-1.92-3.9 3.2-1.3 4-2.2zM1420.8 2867.82l-3.2 1.3-3.98 2.2-1.9-3.85 7.17-3.54z" stroke="#54d500" stroke-width=".05" fill="#54d500"/><path d="M2434.82 2182.1c0 22.1-17.9 40-40 40s-40-17.9-40-40 17.9-40 40-40 40 17.9 40 40zM2694.82 1949c0 22.1-17.9 40-40 40s-40-17.9-40-40 17.9-40 40-40 40 17.9 40 40zM2809.72 2461.3c0 22.1-17.9 40-40 40s-40-17.9-40-40c0-22.08 17.9-40 40-40s40 17.92 40 40zM3028.72 2109c0 22.1-17.9 40-40 40s-40-17.9-40-40 17.9-40 40-40 40 17.9 40 40z" stroke="#000" stroke-opacity="0" stroke-width="8" fill="#54d500"/><path d="M2427.54 2152.77l194.57-174.44" stroke="#54d500" stroke-width="8" fill="none"/><path d="M2430.3 2155.68l-3.23 2.88-1.53-2.08-3.46-3.65-.3-.26 3.16-2.84zM2624.1 1974.63l3.46 3.65.32.25-3.18 2.85-5.34-5.96 3.22-2.88z" stroke="#54d500" stroke-width=".05" fill="#54d500"/><path d="M2694.44 1968L2949.1 2090" stroke="#54d500" stroke-width="8" fill="none"/><path d="M2696.27 1964.43l-3.46 7.2-3.7-1.76.76-1.57.1-.15.88-1.9 1.73-3.6zM2954.62 2088.23l-1.03 1.62-2.1 4.5-.36 1.08-3.86-1.85 3.46-7.2z" stroke="#54d500" stroke-width=".05" fill="#54d500"/><path d="M2664.44 1991.9l95.66 426.5" stroke="#54d500" stroke-width="8" fill="none"/><path d="M2668.37 1991.12l-7.8 1.75-.95-4.23 3.03-.4 4.8-1.27zM2764.93 2421.67l-3.04.4-4.8 1.27-.93-4.15 7.8-1.76z" stroke="#54d500" stroke-width=".05" fill="#54d500"/><path d="M2955.72 2321.3c0 22.1-17.9 40-40 40s-40-17.9-40-40c0-22.08 17.9-40 40-40s40 17.92 40 40z" stroke="#000" stroke-opacity="0" stroke-width="8" fill="#54d500"/><path d="M2801.42 2430.9l82.6-79.2" stroke="#54d500" stroke-width="8" fill="none"/><path d="M2804.26 2433.72l-3.1 2.97-.72-1.02-3.46-3.65-1.35-1.1 3.1-2.98zM2885 2346.93l3.46 3.65 1.35 1.1-3.1 3-5.53-5.8 3.1-2.95z" stroke="#54d500" stroke-width=".05" fill="#54d500"/><path d="M2930 2279.76l44.43-129.2" stroke="#54d500" stroke-width="8" fill="none"/><path d="M2933.82 2280.96l-1.4 4.08-2.06-.97-4.7-1.52-.8-.15 1.4-4.04zM2973.8 2146.1l.27.14 1.66.53 3.78 1.3-1.32 3.88-7.56-2.6 1.33-3.88z" stroke="#54d500" stroke-width=".05" fill="#54d500"/><path d="M3247.72 2409c0 22.1-17.9 40-40 40s-40-17.9-40-40 17.9-40 40-40 40 17.9 40 40z" stroke="#000" stroke-opacity="0" stroke-width="8" fill="#54d500"/><path d="M2957.8 2333.95l207.83 62.4" stroke="#54d500" stroke-width="8" fill="none"/><path d="M2959.05 2330.15l-2.3 7.66-4.1-1.22.3-.63 1.53-4.72.44-2.33zM3170.62 2393.68l-1.15 3.83-.5 1.58-.07.32-.6 1.95-3.9-1.18 2.3-7.67z" stroke="#54d500" stroke-width=".05" fill="#54d500"/><path d="M2882.72 2769c0 22.1-17.9 40-40 40s-40-17.9-40-40 17.9-40 40-40 40 17.9 40 40zM3101.72 2568.57c0 22.1-17.9 40-40 40s-40-17.9-40-40 17.9-40 40-40 40 17.9 40 40zM3320.72 2909c0 22.1-17.9 40-40 40s-40-17.9-40-40 17.9-40 40-40 40 17.9 40 40zM3612.72 2609c0 22.1-17.9 40-40 40s-40-17.9-40-40 17.9-40 40-40 40 17.9 40 40z" stroke="#000" stroke-opacity="0" stroke-width="8" fill="#54d500"/><path d="M2878.16 2743.17l145.06-153.82" stroke="#54d500" stroke-width="8" fill="none"/><path d="M2881.14 2745.84l-3.53 3.75-1.2-2.18-2.96-4.04-.5-.5 2.38-2.53zM3025.6 2585.8l2.4 4.3-1.94 2.07-5.82-5.5 4-4.24z" stroke="#54d500" stroke-width=".05" fill="#54d500"/><path d="M3105.5 2572.03l423.43 33.5" stroke="#54d500" stroke-width="8" fill="none"/><path d="M3105.93 2568.06l-.63 7.97-4.1-.32.15-1.8.05-.3.12-1.88.32-4zM3533.43 2601.88l-.4 2.1-.3 5.02.02.85-4.24-.33.64-7.98z" stroke="#54d500" stroke-width=".05" fill="#54d500"/><path d="M3085.52 2605.57l171.4 266.43" stroke="#54d500" stroke-width="8" fill="none"/><path d="M3088.94 2603.5l-6.72 4.32-2.36-3.65 3.44-1.92 3.3-2.4zM3262.57 2873.4l-3.43 1.92-3.3 2.4-2.35-3.64 6.72-4.33z" stroke="#54d500" stroke-width=".05" fill="#54d500"/><path d="M3977.72 2789c0 22.1-17.9 40-40 40s-40-17.9-40-40 17.9-40 40-40 40 17.9 40 40z" stroke="#000" stroke-opacity="0" stroke-width="8" fill="#54d500"/><path d="M3323.98 2901.1l570.48-104.2" stroke="#54d500" stroke-width="8" fill="none"/><path d="M3324.8 2905.02l-4.23.77-.62-4.62-.85-3.25 4.26-.78zM3898.48 2796.83l.86 3.25-4.26.78-1.44-7.87 4.23-.78z" stroke="#54d500" stroke-width=".05" fill="#54d500"/><path d="M3898.3 2769.57l-286.17-141.13" stroke="#54d500" stroke-width="8" fill="none"/><path d="M3903.86 2767.84l-1.27 2-2.1 4.52-.22.64-3.83-1.9 3.54-7.16zM3614 2624.9l-3.55 7.17-3.68-1.8.9-1.84.18-.28.7-1.48 1.76-3.6z" stroke="#54d500" stroke-width=".05" fill="#54d500"/><path d="M4269.72 2509c0 22.1-17.9 40-40 40s-40-17.9-40-40 17.9-40 40-40 40 17.9 40 40z" stroke="#000" stroke-opacity="0" stroke-width="8" fill="#54d500"/><path d="M3969.42 2758.6l228.6-219.2" stroke="#54d500" stroke-width="8" fill="none"/><path d="M3972.26 2761.42l-3.1 2.96-.72-1-3.46-3.65-1.35-1.1 3.1-2.98zM4200.9 2536.63l1.56 1.65.1.07 1.1 1.17-2.95 2.84-5.53-5.77 2.97-2.85z" stroke="#54d500" stroke-width=".05" fill="#54d500"/><path d="M3539.72 2269c0 22.1-17.9 40-40 40s-40-17.9-40-40 17.9-40 40-40 40 17.9 40 40zM3685.72 2161.3c0 22.1-17.9 40-40 40s-40-17.9-40-40c0-22.08 17.9-40 40-40s40 17.92 40 40zM3831.72 2418.57c0 22.1-17.9 40-40 40s-40-17.9-40-40 17.9-40 40-40 40 17.9 40 40zM4196.72 2009c0 22.1-17.9 40-40 40s-40-17.9-40-40 17.9-40 40-40 40 17.9 40 40z" stroke="#000" stroke-opacity="0" stroke-width="8" fill="#54d500"/><path d="M3535.45 2243.47l71.5-61.68" stroke="#54d500" stroke-width="8" fill="none"/><path d="M3538.14 2246.43l-3.57 3.08-1.17-2.08-2.96-4.04-.46-.48 2.93-2.53zM3609.6 2178.53l2.36 4.22-2.5 2.14-5.2-6.07 4.05-3.5z" stroke="#54d500" stroke-width=".05" fill="#54d500"/><path d="M3687.84 2148.75l426.76-127.2" stroke="#54d500" stroke-width="8" fill="none"/><path d="M3689.08 2152.56l-3.93 1.17-1.14-3.83-.3-1.2-.17-.4-.67-2.24 3.94-1.17zM4117.48 2016.83l1.27 4.8 1.03 2.56-4.14 1.22-2.28-7.67 4.08-1.2z" stroke="#54d500" stroke-width=".05" fill="#54d500"/><path d="M3667.4 2199.5l102.64 180.86" stroke="#54d500" stroke-width="8" fill="none"/><path d="M3670.93 2197.63l-6.96 3.95-2.1-3.72 1.07-.44 4.36-2.43 1.5-1.1zM3775.58 2382.02l-1.1.44-4.34 2.43-1.5 1.1-2.13-3.75 6.96-3.95z" stroke="#54d500" stroke-width=".05" fill="#54d500"/><path d="M4123.72 2269c0 22.1-17.9 40-40 40s-40-17.9-40-40 17.9-40 40-40 40 17.9 40 40z" stroke="#000" stroke-opacity="0" stroke-width="8" fill="#54d500"/><path d="M3830.84 2398.53l213.76-109.5" stroke="#54d500" stroke-width="8" fill="none"/><path d="M3832.75 2402.05l-3.84 1.97-1.07-2.68-2.43-4.35-.1-.13 3.8-1.95zM4047.6 2286.23l2.44 4.36.08.1-3.8 1.95-3.64-7.12 3.85-1.97z" stroke="#54d500" stroke-width=".05" fill="#54d500"/><path d="M4095.6 2226.68l49.24-175.35" stroke="#54d500" stroke-width="8" fill="none"/><path d="M4099.48 2227.66l-1.15 4.1-4.68-1.52-3.04-.57 1.18-4.17zM4145.92 2047.48l.87.28.4.08 2.57.72-1.1 3.95-7.7-2.15 1.1-3.95z" stroke="#54d500" stroke-width=".05" fill="#54d500"/><path d="M4342.72 2209c0 22.1-17.9 40-40 40s-40-17.9-40-40 17.9-40 40-40 40 17.9 40 40z" stroke="#000" stroke-opacity="0" stroke-width="8" fill="#54d500"/><path d="M4126.1 2257.4l134.25-36.8" stroke="#54d500" stroke-width="8" fill="none"/><path d="M4127.25 2261.23l-4.14 1.13-.15-1.18-1.26-4.8-.7-1.73 4.13-1.14zM4264.2 2219.56l.55 2.06.06.16.46 1.63-3.96 1.1-2.1-7.72 3.95-1.08z" stroke="#54d500" stroke-width=".05" fill="#54d500"/><path d="M3174.72 1849c0 22.1-17.9 40-40 40s-40-17.9-40-40 17.9-40 40-40 40 17.9 40 40zM3393.72 1721.3c0 22.1-17.9 40-40 40s-40-17.9-40-40c0-22.08 17.9-40 40-40s40 17.92 40 40zM3466.72 2041.3c0 22.1-17.9 40-40 40s-40-17.9-40-40c0-22.08 17.9-40 40-40s40 17.92 40 40zM3758.72 1689c0 22.1-17.9 40-40 40s-40-17.9-40-40 17.9-40 40-40 40 17.9 40 40z" stroke="#000" stroke-opacity="0" stroke-width="8" fill="#54d500"/><path d="M3170.88 1824.08l143.62-82.9" stroke="#54d500" stroke-width="8" fill="none"/><path d="M3172.97 1827.5l-3.43 1.97-1.14-2.05-2.96-4.04-.48-.5 4-2.32zM3317.6 1738.53l2.3 4.14-3.5 2.02-4-6.93 3.98-2.3z" stroke="#54d500" stroke-width=".05" fill="#54d500"/><path d="M3397.5 1717.43l277.42-24.55" stroke="#54d500" stroke-width="8" fill="none"/><path d="M3397.97 1721.4l-4.1.37-.23-2.77-.02-.56-.1-.66-.34-3.98 4.08-.36zM3678.72 1689l.1 2.87.62 4.63-4.27.37-.7-7.97 4.28-.37z" stroke="#54d500" stroke-width=".05" fill="#54d500"/><path d="M3363.5 1764.16l53.44 234.3" stroke="#54d500" stroke-width="8" fill="none"/><path d="M3367.42 1763.37l-7.8 1.78-.96-4.22 2.88-.4 4.8-1.25.13-.06zM3421.78 2001.7l-2.9.37-4.78 1.27-.13.05-.95-4.16 7.8-1.78z" stroke="#54d500" stroke-width=".05" fill="#54d500"/><path d="M3904.72 1949c0 22.1-17.9 40-40 40s-40-17.9-40-40 17.9-40 40-40 40 17.9 40 40z" stroke="#000" stroke-opacity="0" stroke-width="8" fill="#54d500"/><path d="M3469.76 2032.24l351.92-74.17" stroke="#54d500" stroke-width="8" fill="none"/><path d="M3470.68 2036.13l-4.25.9-.48-3.55-1.13-4.3 4.2-.88zM3825.48 1956.83l1.14 4.3-4.2.88-1.66-7.82 4.25-.9z" stroke="#54d500" stroke-width=".05" fill="#54d500"/><path d="M3843.2 1910.7l-102.97-183.4" stroke="#54d500" stroke-width="8" fill="none"/><path d="M3848.75 1912.4l-1.26.5-4.36 2.42-1.36 1-2.1-3.75 6.97-3.92zM3743.77 1725.44l-6.98 3.9-2.02-3.56 3.5-1.96 2.02-1.13.05-.05 1.4-.8z" stroke="#54d500" stroke-width=".05" fill="#54d500"/><path d="M4050.72 1769c0 22.1-17.9 40-40 40s-40-17.9-40-40 17.9-40 40-40 40 17.9 40 40z" stroke="#000" stroke-opacity="0" stroke-width="8" fill="#54d500"/><path d="M3892.4 1914.9l90.65-111.78" stroke="#54d500" stroke-width="8" fill="none"/><path d="M3895.56 1917.33l-2.7 3.33-.88-.93-3.88-3.2-1.46-.9 2.7-3.34zM3985.57 1800l1.77 1.46.1.07 1.24 1-2.6 3.2-6.2-5.05 2.58-3.2z" stroke="#54d500" stroke-width=".05" fill="#54d500"/><path d="M3460.04 2288.03l-212.64 101.95" stroke="#54d500" stroke-width="8" fill="none"/><path d="M3463.58 2286.16l.03.07.05.07 1.73 3.6-3.7 1.78-3.46-7.2 3.7-1.8zM3249.22 2393.54l-3.92 1.88-1.47-3.64-2-3.57 3.93-1.87z" stroke="#54d500" stroke-width=".05" fill="#54d500"/><path d="M3010.25 2070.66l102.94-183.3" stroke="#54d500" stroke-width="8" fill="none"/><path d="M3013.8 2072.53l-2.12 3.75-3.8-2.4-3.2-1.5 2.13-3.77zM3115.57 1884.13l3.18 1.5-2.13 3.77-6.97-3.92 2.1-3.75z" stroke="#54d500" stroke-width=".05" fill="#54d500"/><path d="M2938.06 2359.15l101.32 171.58" stroke="#54d500" stroke-width="8" fill="none"/><path d="M2941.56 2357.2l-6.9 4.07-2.16-3.67.44-.18 4.36-2.43 2.06-1.52zM3044.94 2532.28l-.45.18-4.36 2.43-2.06 1.5-2.2-3.72 6.9-4.07z" stroke="#54d500" stroke-width=".05" fill="#54d500"/><path d="M2573.65 2507.17L2416 2220.6" stroke="#54d500" stroke-width="8" fill="none"/><path d="M2579.17 2508.9l-1.57.65-4.36 2.42-1.08.8-2.06-3.77 7-3.85zM2419.55 2218.75l-7 3.86-2.08-3.75 1.58-.64 4.36-2.4 1.08-.8z" stroke="#54d500" stroke-width=".05" fill="#54d500"/><path d="M436.82 1115.4c0 22.1-17.9 40-40 40s-40-17.9-40-40 17.9-40 40-40 40 17.9 40 40zM594.7 1007.4c0 22.1-17.9 40-40 40s-40-17.9-40-40 17.9-40 40-40 40 17.9 40 40zM614.7 1493.4c0 22.1-17.9 40-40 40s-40-17.9-40-40 17.9-40 40-40 40 17.9 40 40zM854.7 953.4c0 22.1-17.9 40-40 40s-40-17.9-40-40 17.9-40 40-40 40 17.9 40 40z" stroke="#000" stroke-opacity="0" stroke-width="8" fill="#54d500"/><path d="M432.72 1090.07l83.04-62.4" stroke="#54d500" stroke-width="8" fill="none"/><path d="M435.2 1093.2l-3.54 2.67-1.15-2.06-2.96-4.03-.45-.47 3.3-2.5zM518.6 1024.62l2.32 4.17-2.84 2.13-4.8-6.4 4.05-3.05z" stroke="#54d500" stroke-width=".05" fill="#54d500"/><path d="M597.78 998.45l173.85-36.1" stroke="#54d500" stroke-width="8" fill="none"/><path d="M598.7 1002.35l-4.03.83-.7-3.37-.03-.23-.08-.3-.8-3.92 4-.84zM775.47 961.22l1.1 4.18-4.22.88-1.63-7.83 4.26-.9z" stroke="#54d500" stroke-width=".05" fill="#54d500"/><path d="M556.5 1051.33l16.4 398.13" stroke="#54d500" stroke-width="8" fill="none"/><path d="M560.5 1051.27l-7.98.33-.18-4.35 2.37.15 2.88-.1 2.76-.37zM577.07 1453.54l-2.36-.14-2.87.1-2.76.37-.17-4.35 8-.33z" stroke="#54d500" stroke-width=".05" fill="#54d500"/><path d="M834.7 1331.4c0 22.1-17.9 40-40 40s-40-17.9-40-40 17.9-40 40-40 40 17.9 40 40z" stroke="#000" stroke-opacity="0" stroke-width="8" fill="#54d500"/><path d="M610.07 1467.35l149.27-109.9" stroke="#54d500" stroke-width="8" fill="none"/><path d="M612.53 1470.5l-3.45 2.55-.7-1.24-2.96-4.03-1.1-1.15 3.47-2.55zM761.02 1352.98l2.97 4.04 1.08 1.16-3.46 2.54-4.74-6.44 3.45-2.54z" stroke="#54d500" stroke-width=".05" fill="#54d500"/><path d="M797.03 1287.53l15.35-290.27" stroke="#54d500" stroke-width="8" fill="none"/><path d="M801.03 1287.64l-.23 4.27-1.06-.2-5.03-.3-1.9.06.24-4.24zM812.6 993.26l2.1.14h.23l1.66.08-.23 4.1-8-.43.23-4.1z" stroke="#54d500" stroke-width=".05" fill="#54d500"/><path d="M1111.08 1385.4c0 22.1-17.9 40-40 40s-40-17.9-40-40 17.9-40 40-40 40 17.9 40 40z" stroke="#000" stroke-opacity="0" stroke-width="8" fill="#54d500"/><path d="M837.82 1339.82l190.15 37.15" stroke="#54d500" stroke-width="8" fill="none"/><path d="M838.7 1335.9l-1.55 7.87-4.2-.83.5-1.62.94-4.9.07-1.33zM1032.66 1373.8l-.3 1.57-.04.1-.43 2.27-.77 3.93-4.03-.8 1.53-7.84z" stroke="#54d500" stroke-width=".05" fill="#54d500"/><path d="M734.82 1865.66c0 22.1-17.9 40-40 40s-40-17.9-40-40 17.9-40 40-40 40 17.9 40 40zM956.82 1601.4c0 22.1-17.9 40-40 40s-40-17.9-40-40 17.9-40 40-40 40 17.9 40 40zM1031.08 2065.66c0 22.1-17.9 40-40 40s-40-17.9-40-40 17.9-40 40-40 40 17.9 40 40zM1334.82 1565.66c0 22.1-17.9 40-40 40s-40-17.9-40-40 17.9-40 40-40 40 17.9 40 40z" stroke="#000" stroke-opacity="0" stroke-width="8" fill="#54d500"/><path d="M723.08 1832.02l165.5-197" stroke="#54d500" stroke-width="8" fill="none"/><path d="M726.2 1834.52l-2.76 3.3-1.36-1.44-3.88-3.18-.87-.55 2.75-3.28zM889.56 1630.67l3.9 3.2.86.54-2.75 3.28-6.13-5.15 2.77-3.3z" stroke="#54d500" stroke-width=".05" fill="#54d500"/><path d="M960.6 1597.26l290.46-27.47" stroke="#54d500" stroke-width="8" fill="none"/><path d="M961.06 1601.23l-4.08.4-.24-2.5-.02-.6-.12-.9-.37-3.98 4.08-.38zM1254.82 1565.66l.1 2.87.66 4.86-4.24.4-.76-7.98 4.26-.4z" stroke="#54d500" stroke-width=".05" fill="#54d500"/><path d="M923.76 1644.78l60.38 377.5" stroke="#54d500" stroke-width="8" fill="none"/><path d="M927.73 1644.25l-7.9 1.27-.67-4.2.53-.02 4.95-.67 2.4-.63zM988.75 2025.74l-.54.02-4.94.66-2.4.64-.68-4.26 7.9-1.26z" stroke="#54d500" stroke-width=".05" fill="#54d500"/><path d="M1854.82 1769c0 22.1-17.9 40-40 40s-40-17.9-40-40 17.9-40 40-40 40 17.9 40 40z" stroke="#000" stroke-opacity="0" stroke-width="8" fill="#54d500"/><path d="M1032.44 2050.76l741.02-266.86" stroke="#54d500" stroke-width="8" fill="none"/><path d="M1033.9 2054.5l-4.08 1.46-.77-2.92-1.86-4.6-.02-.03 4-1.44zM1776.86 1781.62l1.85 4.6.03.03-4 1.45-2.72-7.53 4.08-1.47z" stroke="#54d500" stroke-width=".05" fill="#54d500"/><path d="M1773.84 1752.98l-438.03-171.3" stroke="#54d500" stroke-width="8" fill="none"/><path d="M1779.26 1750.8l-1.67 3.56-1.27 3.9-4.04-1.6 2.9-7.45zM1337.36 1578l-2.9 7.45-3.83-1.5 1.4-3.58.03-.07.02-.07 1.46-3.73z" stroke="#54d500" stroke-width=".05" fill="#54d500"/><path d="M2254.82 1769c0 22.1-17.9 40-40 40s-40-17.9-40-40 17.9-40 40-40 40 17.9 40 40z" stroke="#000" stroke-opacity="0" stroke-width="8" fill="#54d500"/><path d="M1858.82 1769h312" stroke="#54d500" stroke-width="8" fill="none"/><path d="M1858.93 1773h-4.35l.24-4-.1-2.87-.15-1.13h4.36zM2174.82 1773h-4.1v-8h4.1z" stroke="#54d500" stroke-width=".05" fill="#54d500"/><path d="M1271.08 1169.4c0 22.1-17.9 40-40 40s-40-17.9-40-40 17.9-40 40-40 40 17.9 40 40zM1391.08 1061.4c0 22.1-17.9 40-40 40s-40-17.9-40-40 17.9-40 40-40 40 17.9 40 40zM1456.82 1439.4c0 22.1-17.9 40-40 40s-40-17.9-40-40 17.9-40 40-40 40 17.9 40 40zM1756.82 845.4c0 22.1-17.9 40-40 40s-40-17.9-40-40 17.9-40 40-40 40 17.9 40 40z" stroke="#000" stroke-opacity="0" stroke-width="8" fill="#54d500"/><path d="M1266.22 1143.3l46.68-60.86" stroke="#54d500" stroke-width="8" fill="none"/><path d="M1269.45 1145.65l-3.4 4.45-1.28-2.3-2.97-4.03-.55-.57 1.85-2.42zM1314.97 1078.62l2.43 4.36.06.08-1.45 1.9-6.34-4.87 3.87-5.06z" stroke="#54d500" stroke-width=".05" fill="#54d500"/><path d="M1388.92 1039.05L1679 867.75" stroke="#54d500" stroke-width="8" fill="none"/><path d="M1391.04 1042.44l-3.53 2.1-2.02-3.45-.7-1.3-.23-.28-1.1-1.88 3.52-2.1zM1680.7 862.62l2.44 4.36 1.5 2.06-3.7 2.2-4.07-6.9 3.67-2.16z" stroke="#54d500" stroke-width=".05" fill="#54d500"/><path d="M1358.62 1104.7l50.67 291.4" stroke="#54d500" stroke-width="8" fill="none"/><path d="M1362.57 1104.12l-7.88 1.37-.74-4.2 4.95-.67 2.93-.77zM1413.95 1399.5l-4.95.66-2.92.77-.75-4.26 7.9-1.37z" stroke="#54d500" stroke-width=".05" fill="#54d500"/><path d="M1711.08 1277.4c0 22.1-17.9 40-40 40s-40-17.9-40-40 17.9-40 40-40 40 17.9 40 40z" stroke="#000" stroke-opacity="0" stroke-width="8" fill="#54d500"/><path d="M1453.93 1415.75l180.05-114.7" stroke="#54d500" stroke-width="8" fill="none"/><path d="M1456.17 1419.07l-3.66 2.33-2-3.6-2.3-3.13 3.67-2.34zM1637.4 1298.98l2.3 3.15-3.66 2.34-4.3-6.75 3.66-2.33z" stroke="#54d500" stroke-width=".05" fill="#54d500"/><path d="M1675.7 1233.68l36.5-344.57" stroke="#54d500" stroke-width="8" fill="none"/><path d="M1679.7 1234l-.46 4.3-3.12-.6-4.83-.3.45-4.24zM1711.36 885l.43.08.82.05 3.97.43-.44 4.07-7.95-.84.44-4.1z" stroke="#54d500" stroke-width=".05" fill="#54d500"/><path d="M2116.82 1223.4c0 22.1-17.9 40-40 40s-40-17.9-40-40 17.9-40 40-40 40 17.9 40 40z" stroke="#000" stroke-opacity="0" stroke-width="8" fill="#54d500"/><path d="M1714.63 1271.6l318.65-42.4" stroke="#54d500" stroke-width="8" fill="none"/><path d="M1715.26 1275.55l-4.22.56-.06-1.57-.66-4.96-.37-1.38 4.25-.58zM2036.93 1226.25v.02l.32 2.4.52 3.96-4.06.54-1.05-7.93 4.07-.54z" stroke="#54d500" stroke-width=".05" fill="#54d500"/><path d="M1056.82 683.4c0 22.1-17.9 40-40 40s-40-17.9-40-40 17.9-40 40-40 40 17.9 40 40zM1171.08 521.4c0 22.1-17.9 40-40 40s-40-17.9-40-40 17.9-40 40-40 40 17.9 40 40zM1191.08 899.4c0 22.1-17.9 40-40 40s-40-17.9-40-40 17.9-40 40-40 40 17.9 40 40zM1471.08 265.66c0 22.1-17.9 40-40 40s-40-17.9-40-40 17.9-40 40-40 40 17.9 40 40z" stroke="#000" stroke-opacity="0" stroke-width="8" fill="#54d500"/><path d="M1042.17 647.46l63.56-90.12" stroke="#54d500" stroke-width="8" fill="none"/><path d="M1045.5 649.68l-2.5 3.55-2.8-2.3-3.72-2.34 2.48-3.53zM1107.7 553.86l3.73 2.34-2.5 3.53-6.52-4.6 2.5-3.57z" stroke="#54d500" stroke-width=".05" fill="#54d500"/><path d="M1164.55 492.87l233.07-198.68" stroke="#54d500" stroke-width="8" fill="none"/><path d="M1167.22 495.84l-3.12 2.67-2.12-2.48-.18-.25-.3-.3-2.6-3.05 3.13-2.66zM1400.37 291.28l3.05 3.22-3.3 2.8-5.18-6.1 3.3-2.8z" stroke="#54d500" stroke-width=".05" fill="#54d500"/><path d="M1133.4 565.32l15.36 290.16" stroke="#54d500" stroke-width="8" fill="none"/><path d="M1137.4 565.2l-7.98.43-.23-4.35 1.88.12 2.87-.1 3.23-.44zM1152.98 859.5l-1.9-.1-2.87.1-3.2.43-.24-4.34 8-.44z" stroke="#54d500" stroke-width=".05" fill="#54d500"/><path d="M1462.55 791.4c0 22.1-17.9 40-40 40s-40-17.9-40-40 17.9-40 40-40 40 17.9 40 40z" stroke="#000" stroke-opacity="0" stroke-width="8" fill="#54d500"/><path d="M1191.9 883.16l189.83-75.52" stroke="#54d500" stroke-width="8" fill="none"/><path d="M1193.48 886.83l-4 1.6-.43-1.65-1.86-4.6-.66-1.2 3.98-1.58zM1384.58 804.02l1.86 4.6.66 1.2-4 1.57-2.94-7.44 4-1.6z" stroke="#54d500" stroke-width=".05" fill="#54d500"/><path d="M1423.26 747.44l7.1-437.82" stroke="#54d500" stroke-width="8" fill="none"/><path d="M1427.27 747.4l-.07 4.3-4.65-.3-2.87.1-.48.06.07-4.3zM1430.43 305.62l.65.04.58-.02 2.77.04-.06 4.1-8-.13.07-4.1z" stroke="#54d500" stroke-width=".05" fill="#54d500"/><path d="M1734.82 485.66c0 22.1-17.9 40-40 40s-40-17.9-40-40 17.9-40 40-40 40 17.9 40 40z" stroke="#000" stroke-opacity="0" stroke-width="8" fill="#54d500"/><path d="M1451.78 758.57l213.8-240.1" stroke="#54d500" stroke-width="8" fill="none"/><path d="M1454.84 761.15l-2.88 3.24-2.15-2.28-3.77-3.1 2.83-3.2zM1667.28 514.63l.28.3.7.56 2.98 2.65-2.73 3.07-5.96-5.32 2.73-3.07z" stroke="#54d500" stroke-width=".05" fill="#54d500"/><path d="M1204.9 1204.73l-107.64 145.33" stroke="#54d500" stroke-width="8" fill="none"/><path d="M1207.3 1201.52l.4.34.3.2 2.5 1.84-2.44 3.3-6.43-4.77 2.45-3.3zM1100.53 1352.36l-2.56 3.46-3.5-2.88-2.95-1.86 2.58-3.48z" stroke="#54d500" stroke-width=".05" fill="#54d500"/><path d="M841.05 918.2l149.43-199.6" stroke="#54d500" stroke-width="8" fill="none"/><path d="M844.3 920.52l-2.55 3.43-3.67-3-2.77-1.76 2.6-3.48zM993.45 715.86l2.76 1.74-2.58 3.47-6.4-4.8 2.56-3.42z" stroke="#54d500" stroke-width=".05" fill="#54d500"/><path d="M812.82 1371.46l85.9 189.88" stroke="#54d500" stroke-width="8" fill="none"/><path d="M816.5 1369.9l-7.28 3.3-1.76-3.9 4.47-1.8 2.8-1.55zM904.07 1563.48l-4.47 1.8-2.8 1.56-1.78-3.95 7.3-3.3z" stroke="#54d500" stroke-width=".05" fill="#54d500"/><path d="M1934.82 674.76c0 22.1-17.9 40-40 40s-40-17.9-40-40 17.9-40 40-40 40 17.9 40 40zM2154.82 291.54c0 22.1-17.9 40-40 40s-40-17.9-40-40 17.9-40 40-40 40 17.9 40 40zM2291.72 1221.4c0 22.1-17.9 40-40 40s-40-17.9-40-40 17.9-40 40-40 40 17.9 40 40zM2474.82 565.66c0 22.1-17.9 40-40 40s-40-17.9-40-40 17.9-40 40-40 40 17.9 40 40z" stroke="#000" stroke-opacity="0" stroke-width="8" fill="#54d500"/><path d="M1916.7 636.63l176.24-306.97" stroke="#54d500" stroke-width="8" fill="none"/><path d="M1920.23 638.53l-2.12 3.7-4.13-2.6-2.83-1.33 2.15-3.75zM2095.67 326.66l2.84 1.33-2.14 3.74-6.94-3.98 2.12-3.7z" stroke="#54d500" stroke-width=".05" fill="#54d500"/><path d="M2148.2 320.12l253.26 216.96" stroke="#54d500" stroke-width="8" fill="none"/><path d="M2150.87 317.15l-5.2 6.07-3.12-2.67 1.3-1.53.25-.22 1.05-1.3 2.6-3.02zM2407.26 536.78l-1.7 1.62-3.2 3.88-.34.54-3.24-2.77 5.2-6.08z" stroke="#54d500" stroke-width=".05" fill="#54d500"/><path d="M2121.22 335l124.1 842.94" stroke="#54d500" stroke-width="8" fill="none"/><path d="M2125.2 334.52l-7.92 1.16-.62-4.2 1.03-.05 4.95-.66 1.92-.5zM2249.88 1181.46l-1.03.04-4.96.66-1.93.5-.62-4.24 7.9-1.17z" stroke="#54d500" stroke-width=".05" fill="#54d500"/><path d="M2437.72 1053.4c0 22.1-17.9 40-40 40s-40-17.9-40-40 17.9-40 40-40 40 17.9 40 40z" stroke="#000" stroke-opacity="0" stroke-width="8" fill="#54d500"/><path d="M2280.54 1188.23l88.36-101.67" stroke="#54d500" stroke-width="8" fill="none"/><path d="M2283.63 1190.78l-2.84 3.26-1.82-1.92-3.88-3.18-.3-.2 2.8-3.2zM2370.46 1082.67l3.88 3.2.3.18-2.8 3.2-6.03-5.24 2.84-3.25z" stroke="#54d500" stroke-width=".05" fill="#54d500"/><path d="M2401.05 1009.6l30.44-400.14" stroke="#54d500" stroke-width="8" fill="none"/><path d="M2405.05 1009.8l-.33 4.28-1.96-.37-5.04-.3-.97.03.32-4.24zM2429.54 605.3l.25.04 2 .13 3.98.3-.3 4.1-7.98-.62.3-4.1z" stroke="#54d500" stroke-width=".05" fill="#54d500"/><path d="M2729.72 1109.4c0 22.1-17.9 40-40 40s-40-17.9-40-40 17.9-40 40-40 40 17.9 40 40z" stroke="#000" stroke-opacity="0" stroke-width="8" fill="#54d500"/><path d="M2440.86 1061.67l205.72 39.45" stroke="#54d500" stroke-width="8" fill="none"/><path d="M2441.72 1057.76l-1.5 7.86-4.22-.8.48-1.5.92-4.9.1-1.47zM2651.26 1097.95l-.3 1.48v.04l-.46 2.4-.75 3.93-4.03-.77 1.5-7.86z" stroke="#54d500" stroke-width=".05" fill="#54d500"/><path d="M2154.82 1469.4c0 22.1-17.9 40-40 40s-40-17.9-40-40 17.9-40 40-40 40 17.9 40 40zM2594.82 1705.66c0 22.1-17.9 40-40 40s-40-17.9-40-40 17.9-40 40-40 40 17.9 40 40zM2934.82 1661.4c0 22.1-17.9 40-40 40s-40-17.9-40-40 17.9-40 40-40 40 17.9 40 40zM2974.82 1301.4c0 22.1-17.9 40-40 40s-40-17.9-40-40 17.9-40 40-40 40 17.9 40 40z" stroke="#000" stroke-opacity="0" stroke-width="8" fill="#54d500"/><path d="M2153.58 1490.2l362.5 194.64" stroke="#54d500" stroke-width="8" fill="none"/><path d="M2155.57 1486.73l-3.8 7.05-3.82-2.06 2-3.17 1.8-3.86zM2521.7 1683.33l-2 3.18-1.8 3.87-3.82-2.05 3.8-7.05z" stroke="#54d500" stroke-width=".05" fill="#54d500"/><path d="M2584.95 1673.6l319.75-340.15" stroke="#54d500" stroke-width="8" fill="none"/><path d="M2587.94 1676.27l-2.8 3-2.93-2.75-.12-.14-.12-.1-2.66-2.5 2.8-3zM2907.56 1330.67l2.96 2.42-2.98 3.16-5.83-5.48 2.98-3.16z" stroke="#54d500" stroke-width=".05" fill="#54d500"/><path d="M2598.38 1700l252.9-32.93" stroke="#54d500" stroke-width="8" fill="none"/><path d="M2599 1703.94l-4.22.55-.06-1.7-.66-4.97-.34-1.27 4.25-.55zM2854.93 1664.27l.66 4.95.33 1.27-4.25.55-1.03-7.94 4.22-.54z" stroke="#54d500" stroke-width=".05" fill="#54d500"/><path d="M3654.82 1425.66c0 22.1-17.9 40-40 40s-40-17.9-40-40 17.9-40 40-40 40 17.9 40 40z" stroke="#000" stroke-opacity="0" stroke-width="8" fill="#54d500"/><path d="M2936.64 1647.7L3573 1439.36" stroke="#54d500" stroke-width="8" fill="none"/><path d="M2937.98 1651.47l-4.12 1.35-1.07-4.04-1.44-3.56 4.13-1.35zM3576.86 1438.28l1.43 3.55-4.14 1.35-2.5-7.6 4.13-1.35z" stroke="#54d500" stroke-width=".05" fill="#54d500"/><path d="M3571.6 1417.76l-593.56-108.47" stroke="#54d500" stroke-width="8" fill="none"/><path d="M3576.44 1414.58l-.37 1.15-.93 4.9-.12 1.82-4.23-.77 1.43-7.87zM2978.86 1305.38l-1.44 7.87-4.03-.74.7-3.93.4-2.14.02-.12.3-1.66z" stroke="#54d500" stroke-width=".05" fill="#54d500"/><path d="M4034.82 1285.66c0 22.1-17.9 40-40 40s-40-17.9-40-40 17.9-40 40-40 40 17.9 40 40z" stroke="#000" stroke-opacity="0" stroke-width="8" fill="#54d500"/><path d="M3656.07 1410.46l297.5-109.6" stroke="#54d500" stroke-width="8" fill="none"/><path d="M3657.55 1414.18l-4.06 1.5-.7-2.64-1.86-4.6-.16-.3 4-1.47zM3956.75 1297.88l.1.4.5 1.2 1.37 3.74-3.85 1.42-2.77-7.5 3.85-1.43z" stroke="#54d500" stroke-width=".05" fill="#54d500"/><path d="M3021.72 941.4c0 22.1-17.9 40-40 40s-40-17.9-40-40 17.9-40 40-40 40 17.9 40 40zM3167.72 773.4c0 22.1-17.9 40-40 40s-40-17.9-40-40 17.9-40 40-40 40 17.9 40 40zM3313.72 1165.4c0 22.1-17.9 40-40 40s-40-17.9-40-40 17.9-40 40-40 40 17.9 40 40zM3744.72 639.4c0 22.08-17.9 40-40 40s-40-17.92-40-40c0-22.1 17.9-40 40-40s40 17.9 40 40z" stroke="#000" stroke-opacity="0" stroke-width="8" fill="#54d500"/><path d="M3016.5 915.06l73.4-120.38" stroke="#54d500" stroke-width="8" fill="none"/><path d="M3019.97 917.05l-3.2 5.23-1.37-2.47-2.96-4.03-.65-.68 1.34-2.2zM3091.6 790.62l2.44 4.36.2.26-1 1.6-6.82-4.15 3.62-5.96z" stroke="#54d500" stroke-width=".05" fill="#54d500"/><path d="M3170.53 763.45l491.38-114.12" stroke="#54d500" stroke-width="8" fill="none"/><path d="M3171.53 767.33l-4 .92-.52-2.28-.05-.4-.32-1.2-.9-3.9 4-.94zM3665.48 647.2l1.27 4.8.1.28-4.14.97-1.8-7.8 4.22-.97z" stroke="#54d500" stroke-width=".05" fill="#54d500"/><path d="M3143.06 814.58l115.32 309.63" stroke="#54d500" stroke-width="8" fill="none"/><path d="M3146.84 813.28l-7.5 2.8-1.5-4.05 2.5-.67 4.6-1.85.4-.22zM3263.6 1126.77l-2.5.66-4.6 1.86-.4.2-1.5-4 7.5-2.78z" stroke="#54d500" stroke-width=".05" fill="#54d500"/><path d="M3605.72 997.4c0 22.1-17.9 40-40 40s-40-17.9-40-40 17.9-40 40-40 40 17.9 40 40z" stroke="#000" stroke-opacity="0" stroke-width="8" fill="#54d500"/><path d="M3311.8 1143.5l215.84-124.2" stroke="#54d500" stroke-width="8" fill="none"/><path d="M3313.88 1146.9l-3.7 2.13-.35-.86-2.43-4.36-1.24-1.68 3.73-2.15zM3529.6 1014.62l2.44 4.36 1.24 1.7-3.74 2.14-3.98-6.93 3.7-2.14z" stroke="#54d500" stroke-width=".05" fill="#54d500"/><path d="M3581.64 956.38L3688.8 680.4" stroke="#54d500" stroke-width="8" fill="none"/><path d="M3585.4 957.73l-1.56 4.06-3.48-1.64-3.98-1.28 1.57-4.04zM3689.94 676.56l.13.06.17.05 3.73 1.45-1.48 3.83-7.47-2.9 1.48-3.82z" stroke="#54d500" stroke-width=".05" fill="#54d500"/><path d="M3874.82 1045.66c0 22.1-17.9 40-40 40s-40-17.9-40-40 17.9-40 40-40 40 17.9 40 40z" stroke="#000" stroke-opacity="0" stroke-width="8" fill="#54d500"/><path d="M3608.96 1005.15l182.62 32.75" stroke="#54d500" stroke-width="8" fill="none"/><path d="M3609.77 1001.23l-1.4 7.88-4.22-.75.33-1.03.92-4.9.13-1.95zM3796.23 1034.67l-.7 3.94-.4 2.02v.18l-.32 1.75-4.02-.73 1.4-7.87z" stroke="#54d500" stroke-width=".05" fill="#54d500"/><path d="M2634.82 365.66c0 22.1-17.9 40-40 40s-40-17.9-40-40 17.9-40 40-40 40 17.9 40 40zM2894.82 245.66c0 22.1-17.9 40-40 40s-40-17.9-40-40 17.9-40 40-40 40 17.9 40 40zM2948.72 605.4c0 22.1-17.9 40-40 40s-40-17.9-40-40 17.9-40 40-40 40 17.9 40 40zM3214.82 291.54c0 22.1-17.9 40-40 40s-40-17.9-40-40 17.9-40 40-40 40 17.9 40 40z" stroke="#000" stroke-opacity="0" stroke-width="8" fill="#54d500"/><path d="M2634.76 347.23l180.13-83.14" stroke="#54d500" stroke-width="8" fill="none"/><path d="M2636.53 350.8l-3.9 1.82-1.7-4.2-1.7-3.05 3.94-1.82zM2818.7 262.88l1.72 3.06-3.95 1.82-3.35-7.26 3.9-1.8z" stroke="#54d500" stroke-width=".05" fill="#54d500"/><path d="M2898.35 251.9l232.95 33.4" stroke="#54d500" stroke-width="8" fill="none"/><path d="M2899.02 247.95l-1.14 7.92-4.06-.58.57-3.97.1-.64.03-.37.43-2.96zM3136 281.93l-.86 4.57-.2 3.36-4.3-.62 1.13-7.92z" stroke="#54d500" stroke-width=".05" fill="#54d500"/><path d="M2861.33 289.1l40.88 272.85" stroke="#54d500" stroke-width="8" fill="none"/><path d="M2865.3 288.6l-7.9 1.2-.64-4.2.93-.04 4.95-.67 2.02-.54zM2906.78 565.46l-.93.04-4.96.66-2.02.53-.64-4.26 7.9-1.18z" stroke="#54d500" stroke-width=".05" fill="#54d500"/><path d="M3386.72 493.4c0 22.1-17.9 40-40 40s-40-17.9-40-40 17.9-40 40-40 40 17.9 40 40z" stroke="#000" stroke-opacity="0" stroke-width="8" fill="#54d500"/><path d="M2951.28 594.5l352.88-90.22" stroke="#54d500" stroke-width="8" fill="none"/><path d="M2952.37 598.36l-4.17 1.07-.25-1.86-1.26-4.8-.46-1.1 4.15-1.06zM3307.48 501.22l1.27 4.8.45 1.1-4.15 1.06-2-7.75 4.2-1.07z" stroke="#54d500" stroke-width=".05" fill="#54d500"/><path d="M3318.2 459.9l-114.86-134.88" stroke="#54d500" stroke-width="8" fill="none"/><path d="M3324 460.55l-2.9 2.13-3.2 3.03-2.8-3.27 6.1-5.2zM3206.45 322.5l-6.1 5.2-2.65-3.13 2.5-2.14.25-.18.3-.28 3.04-2.6z" stroke="#54d500" stroke-width=".05" fill="#54d500"/><path d="M3634.82 365.66c0 22.1-17.9 40-40 40s-40-17.9-40-40 17.9-40 40-40 40 17.9 40 40z" stroke="#000" stroke-opacity="0" stroke-width="8" fill="#54d500"/><path d="M3385.8 473.28l169.95-87.5" stroke="#54d500" stroke-width="8" fill="none"/><path d="M3387.72 476.8l-3.84 1.96-1.05-2.6-2.43-4.35-.14-.17 3.8-1.96zM3558.55 382.48l.16.4.6 1.06 1.84 3.56-3.65 1.88-3.67-7.1 3.64-1.9z" stroke="#54d500" stroke-width=".05" fill="#54d500"/><path d="M2943.64 963.3l-215.84 124.2" stroke="#54d500" stroke-width="8" fill="none"/><path d="M2947.1 961.3l.94 1.68.14.2.92 1.6-3.56 2.04-3.98-6.93 3.55-2.06zM2729.88 1090.9l-3.7 2.13-.35-.86-2.43-4.36-1.24-1.68 3.73-2.15z" stroke="#54d500" stroke-width=".05" fill="#54d500"/><path d="M2462.26 531.36l105.12-131.4" stroke="#54d500" stroke-width="8" fill="none"/><path d="M2465.45 533.77l-2.67 3.35-.7-.74-3.88-3.18-1.68-1.07 2.7-3.35zM2567.56 394.93l3.9 3.2 1.67 1.05-2.7 3.36-6.23-5 2.67-3.34z" stroke="#54d500" stroke-width=".05" fill="#54d500"/><path d="M2408 1096.12l136.53 566.82" stroke="#54d500" stroke-width="8" fill="none"/><path d="M2411.92 1095.28l-7.78 1.87-1-4.2 2.4-.32 4.8-1.27.58-.23zM2549.4 1666.1l-2.4.32-4.8 1.27-.58.22-1-4.15 7.78-1.87z" stroke="#54d500" stroke-width=".05" fill="#54d500"/><path d="M2062.97 1181.63l-154.3-465.1" stroke="#54d500" stroke-width="8" fill="none"/><path d="M2068.1 1184.4l-3.9 1.03-3.7 1.5-1.36-4.14 7.6-2.53zM1912.5 715.37l-7.58 2.5-1.37-4.12 3.9-1.03 3.7-1.5z" stroke="#54d500" stroke-width=".05" fill="#54d500"/><path d="M1605.1 2058.48l-570.03 6.66" stroke="#54d500" stroke-width="8" fill="none"/><path d="M1609.08 2057.96l.1 2.87.22 1.6-4.36.05-.1-8 4.36-.05zM1035.22 2069.14l-4.1.05-.05-3.4v-.61l-.05-4 4.1-.06z" stroke="#54d500" stroke-width=".05" fill="#54d500"/><path d="M3648.02 1454.44l329.5 285.78" stroke="#54d500" stroke-width="8" fill="none"/><path d="M3650.72 1451.5l-5.25 6.03-3.26-2.83 1.9-1.78 3.18-3.88.22-.34zM3983.33 1739.96l-1.88 1.78-3.2 3.88-.2.34-3.22-2.8 5.24-6.03z" stroke="#54d500" stroke-width=".05" fill="#54d500"/><path d="M4057.72 225.66c0 22.1-17.9 40-40 40s-40-17.9-40-40 17.9-40 40-40 40 17.9 40 40zM110.66 799.32c15.54 15.7 15.4 41.03-.3 56.57-15.7 15.53-41.03 15.4-56.57-.3-15.55-15.7-15.4-41.04.3-56.58 15.7-15.54 41.02-15.4 56.56.3zM113.34 514.68c15.54 15.7 15.4 41.03-.3 56.57-15.7 15.54-41.02 15.4-56.56-.3-15.54-15.7-15.4-41.03.3-56.56 15.7-15.55 41.02-15.42 56.56.28zM480.74 630.05c15.54 15.7 15.4 41.03-.3 56.57-15.7 15.54-41.02 15.4-56.56-.3-15.54-15.7-15.4-41.02.3-56.56 15.7-15.54 41.02-15.4 56.56.3zM383.45 304.27c15.54 15.7 15.4 41.03-.3 56.57-15.7 15.54-41.02 15.4-56.56-.3-15.55-15.7-15.42-41.03.3-56.57 15.7-15.54 41.02-15.4 56.55.3z" stroke="#000" stroke-opacity="0" stroke-width="8" fill="#54d500"/><path d="M89 784.17L72.4 584.65" stroke="#54d500" stroke-width="8" fill="none"/><path d="M93.44 789.13l-2.45-.7-4.97-.8-.75-.02-.26-3.2 7.97-.66zM71.36 580.46l4.8 1.4h.02l.2 2.56-7.96.67-.5-6.12z" stroke="#54d500" stroke-width=".05" fill="#54d500"/><path d="M119.6 515.8l200.72-156.36" stroke="#54d500" stroke-width="8" fill="none"/><path d="M122.15 518.88l-3.24 2.52-2.1-2.7-.14-.22-.2-.23-2.46-3.16 3.23-2.53zM323.27 356.74l2.84 3.25-3.4 2.65-4.92-6.3 3.43-2.67z" stroke="#54d500" stroke-width=".05" fill="#54d500"/><path d="M126.83 555.98l283.56 89.04" stroke="#54d500" stroke-width="8" fill="none"/><path d="M128.13 552.2l-2.4 7.63-4.1-1.3.92-2.16 1.4-4.8.1-.65zM415.6 642.47l-.93 2.17-1.4 4.8-.1.65-4.08-1.3 2.4-7.62z" stroke="#54d500" stroke-width=".05" fill="#54d500"/><path d="M680.66 263.4c15.54 15.7 15.4 41.03-.3 56.57-15.7 15.54-41.03 15.4-56.57-.3-15.54-15.7-15.4-41.03.3-56.57 15.7-15.53 41.02-15.4 56.56.3z" stroke="#000" stroke-opacity="0" stroke-width="8" fill="#54d500"/><path d="M473.35 619.6l157.83-289.47" stroke="#54d500" stroke-width="8" fill="none"/><path d="M476.9 621.42l-2.03 3.75-.17-.14-4.28-2.52-2.6-1.1 2.07-3.8zM629.84 324.7l4.28 2.5 2.6 1.14-2.07 3.8-7.03-3.84 2.04-3.74z" stroke="#54d500" stroke-width=".05" fill="#54d500"/><path d="M608.67 297.53l-210.1 28.9" stroke="#54d500" stroke-width="8" fill="none"/><path d="M612.7 297.75l.7 3.16-4.28.6-1.1-7.92 4.25-.6zM399.22 330.37l-4.06.55-.55-3.96-.06-.77-.1-.42-.37-2.78 4.06-.56z" stroke="#54d500" stroke-width=".05" fill="#54d500"/><path d="M1179.52 54.1c15.53 15.7 15.4 41.02-.3 56.56-15.7 15.54-41.03 15.4-56.57-.3-15.54-15.7-15.4-41.03.3-56.57 15.7-15.55 41.03-15.4 56.57.3z" stroke="#000" stroke-opacity="0" stroke-width="8" fill="#54d500"/><path d="M692.8 274.52L1110.5 99.24" stroke="#54d500" stroke-width="8" fill="none"/><path d="M694.43 278.16l-3.98 1.68-1.46-4.08-1.67-3.3 4-1.67zM1114.2 97.7l.12.3.1.23 1.33 3.16-3.78 1.57-3.1-7.37 3.8-1.6z" stroke="#54d500" stroke-width=".05" fill="#54d500"/><path d="M1091.43 502.5l-407.4-180.9" stroke="#54d500" stroke-width="8" fill="none"/><path d="M1097 500.6l-1.04 1.65-2.1 4.5-.35 1.04-3.8-1.7 3.26-7.3zM685.73 317.98l-3.24 7.3-5.46-2.4 3.32-2.9 1.97-2.1.8-1.05z" stroke="#54d500" stroke-width=".05" fill="#54d500"/><path d="M3731.24 604.33l284.03-376.02" stroke="#54d500" stroke-width="8" fill="none"/><path d="M3734.5 606.66l-2.58 3.4-3.82-3.13-2.6-1.64 2.6-3.46z" stroke="#54d500" stroke-width=".05" fill="#54d500"/><path d="M4015.2 228.4l2.48-3.3" stroke="#54d500" stroke-width="8" fill="none"/><path d="M240.32 2077.3c-21.1 6.57-43.52-5.2-50.1-26.3-6.58-21.08 5.18-43.5 26.27-50.08 21.08-6.58 43.5 5.18 50.1 26.27 6.57 21.08-5.2 43.5-26.28 50.1zM496.88 2226.66c-21.1 6.58-43.52-5.2-50.1-26.27-6.58-21.1 5.18-43.53 26.27-50.1 21.1-6.6 43.52 5.17 50.1 26.26 6.58 21.1-5.2 43.52-26.27 50.1zM237.1 2537.1c-21.08 6.58-43.5-5.18-50.1-26.27-6.57-21.1 5.2-43.52 26.28-50.1 21.1-6.57 43.52 5.2 50.1 26.28 6.58 21.1-5.18 43.53-26.27 50.1zM610.45 2726.52c-21.08 6.57-43.5-5.2-50.1-26.28-6.57-21.1 5.2-43.52 26.28-50.1 21.1-6.57 43.52 5.2 50.1 26.28 6.58 21.1-5.2 43.52-26.28 50.1z" stroke="#000" stroke-opacity="0" stroke-width="8" fill="#54d500"/><path d="M263.62 2065.24l190.04 92.67" stroke="#54d500" stroke-width="8" fill="none"/><path d="M265.47 2061.7l-3.5 7.18-4.64-2.26 1.7-1.8 2.98-4.03.36-.62zM460.57 2156.83l-2.8 2.3-3.4 3.58-2.55-1.24 3.5-7.2z" stroke="#54d500" stroke-width=".05" fill="#54d500"/><path d="M494.7 2231.3l94.1 414.2" stroke="#54d500" stroke-width="8" fill="none"/><path d="M498.62 2230.52l-7.8 1.78-.9-4 1.76-.4.3-.04 1.83-.45 3.9-.88zM593.64 2648.7l-2.1.24-4.9 1.2-.8.3-.95-4.16 7.8-1.77z" stroke="#54d500" stroke-width=".05" fill="#54d500"/><path d="M456.73 2222.22l-203.3 242.95" stroke="#54d500" stroke-width="8" fill="none"/><path d="M459.24 2219.1l3.28 2.43-2.8 3.33-6.13-5.13 2.78-3.33zM256.57 2467.66l-2.8 3.34-2.85-2.7-3.28-2.44 2.8-3.33z" stroke="#54d500" stroke-width=".05" fill="#54d500"/><path d="M547.32 3128.56c-21.1 6.58-43.52-5.2-50.1-26.27-6.57-21.1 5.2-43.53 26.28-50.1 21.1-6.6 43.52 5.17 50.1 26.26 6.57 21.1-5.2 43.52-26.28 50.1z" stroke="#000" stroke-opacity="0" stroke-width="8" fill="#54d500"/><path d="M245.62 2537.86L515 3051.43" stroke="#54d500" stroke-width="8" fill="none"/><path d="M249.2 2536.1l-7.07 3.7-2-3.8 4.22-1.96 2.85-1.78zM520.47 3053.3l-4.22 1.95-2.84 1.8-2-3.85 7.08-3.72z" stroke="#54d500" stroke-width=".05" fill="#54d500"/><path d="M542.23 3046.96l49.5-315.22" stroke="#54d500" stroke-width="8" fill="none"/><path d="M546.2 3047.48l-.68 4.27-2.3-.6-4.92-.68h-.67l.66-4.23zM590.4 2727.48l.32.08 1.63.23 3.95.6-.64 4.06-7.9-1.24.64-4.05z" stroke="#54d500" stroke-width=".05" fill="#54d500"/><path d="M1053.8 2818.38l-479.45 251.56" stroke="#54d500" stroke-width="8" fill="none"/><path d="M1056.6 2815.2l2.42 4.34.32.44-3.78 2-3.72-7.1 3.82-2zM576.3 3073.44l-3.8 2-1.97-4.22-1.8-2.85 3.85-2.02z" stroke="#54d500" stroke-width=".05" fill="#54d500"/></g></svg>